<svg xmlns="http://www.w3.org/2000/svg" viewBox="0 0 340 60"><path fill="#ffe700" d="M141 54.1h40v3.3h-40z"></path><path fill="#ff004d" d="M141 .7h40V4h-40z"></path><path fill="#00ebff" d="M227.7 54.1h40v3.3h-40z"></path><path fill="#00ff89" d="M227.7.7h40V4h-40z"></path><g fill-rule="nonzero"><path d="M32.6 46.6h-5V30.5H4.9v16H0V11.2h4.9v15.3h22.7V11h5v35.5zM51 11v21.3c0 6.3 4.2 11 11.5 11 7.2 0 11.3-4.7 11.3-11V11h5v21.4c0 8.8-5.8 15-16.3 15s-16.3-6.2-16.3-15V11.1H51zM92.4 11h7.2L111 38.7c.4 1 .8 2 1 3l1-3L125 11h7.2v35.5h-4.5V18.8c0-1.2 0-2.4.2-3.6h-.2l-1.3 3.6-11.8 27.8h-4.7L98 18.8l-1.1-3.6h-.2c.1 1.2.2 2.4.1 3.6v27.8h-4.4V11zM170.6 37.4h-19l-4 9.2h-5.2L158.6 11h5l16.2 35.5h-5.2l-4-9.2zm-1.8-4.1l-6.5-15-1.2-3h-.1c-.3 1.1-.8 2.2-1.2 3l-6.5 15h15.5zM190 11h6l19.7 26.3c.9 1.2 1.6 2.6 2.2 4h.1V11.1h4.4v35.5h-5.7l-20-26.6c-.9-1.2-1.6-2.5-2.2-3.9h-.1v30.4H190V11.2z"></path></g><path d="M249.7 14.8v28h9v3.8h-22.5v-3.8h8.9v-28h-8.9v-3.7h22.4v3.7h-8.9z" fill-rule="nonzero"></path><g fill-rule="nonzero"><path d="M268.6 35.8l5-.8c1.2 5 5 8.5 12.5 8.5 5.9 0 10-1.7 10-6.2 0-4-2.7-5.5-7.9-6.2l-7.8-1c-6.3-1-10.1-3.8-10.1-9.8 0-6.2 5.4-10.2 14.6-10.2 8.7 0 14.5 3.4 16 10.4l-4.9 1.2c-1.3-5-4.6-7.6-11.3-7.6-5.8 0-9.4 2.1-9.4 5.8 0 3.5 2 5.2 7.1 6l7.6 1c7 1 11.1 3.7 11.1 10s-4.9 10.7-15 10.7c-10.5 0-16.1-4.5-17.5-11.8zM340 42.5v4h-27.2V11.2h26.8v4h-22v11.2h21.1v4.1h-21v12H340z"></path></g></svg>