<svg xmlns="http://www.w3.org/2000/svg" width="64" height="64" viewBox="0 0 32 32">
  <path d="M28.057 6.53L17.952.532a3.8 3.8 0 0 0-3.88 0L3.965 6.53A4.03 4.03 0 0 0 2 10.002v11.996a4.03 4.03 0 0 0 1.948 3.472l10.105 5.998a3.8 3.8 0 0 0 3.88 0L28.04 25.47a4.03 4.03 0 0 0 1.948-3.472V10.002a4.03 4.03 0 0 0-1.93-3.472zM20.23 25.262v.86c-.001.108-.057.207-.148.265l-.512.293c-.08.042-.148 0-.148-.113v-.847a1.66 1.66 0 0 1-1.164.113c-.062-.042-.086-.122-.056-.2l.183-.78c.016-.066.05-.125.102-.17a.18.18 0 0 1 .05-.035.11.11 0 0 1 .08 0 1.41 1.41 0 0 0 1.059-.134 1.41 1.41 0 0 0 .79-1.21c0-.438-.24-.62-.82-.625-.734 0-1.4-.14-1.43-1.224.017-.937.452-1.817 1.186-2.4v-.872c-.001-.1.056-.2.148-.268l.494-.314c.08-.042.148 0 .148.116v.872a1.61 1.61 0 0 1 .967-.116c.07.04.098.128.064.2l-.173.773c-.015.06-.045.113-.088.155-.014.015-.03.028-.05.04s-.05.008-.074 0a1.28 1.28 0 0 0-.931.152 1.17 1.17 0 0 0-.706 1.037c0 .395.208.515.907.53.935 0 1.337.423 1.348 1.362-.018.983-.467 1.908-1.228 2.53zm5.293-1.45c.012.074-.018.15-.078.194L22.9 25.558c-.024.02-.06.023-.087.007s-.04-.05-.033-.08v-.66c.003-.072.05-.136.116-.162l2.516-1.507c.024-.02.06-.023.087-.007s.04.05.033.08v.582zM27.288 9.06l-9.562 5.906c-1.193.706-2.07 1.478-2.07 2.914v11.778c0 .86.353 1.4.882 1.58a3.14 3.14 0 0 1-.53.053 3.13 3.13 0 0 1-1.595-.441L4.308 24.853C3.3 24.25 2.702 23.165 2.706 22V10.002C2.7 8.834 3.3 7.75 4.308 7.144l10.105-5.998c.98-.58 2.196-.58 3.176 0l10.105 5.998c.833.504 1.4 1.35 1.552 2.3-.328-.713-1.083-.9-1.962-.395h.003z" fill="#1b1b1f" fill-rule="evenodd" />
</svg>