<?xml version="1.0" encoding="UTF-8"?>
<svg enable-background="new 0 0 190.25 31" version="1.1" viewBox="-10 -10 210.2 51" xml:space="preserve" xmlns="http://www.w3.org/2000/svg" xmlns:cc="http://creativecommons.org/ns#" xmlns:dc="http://purl.org/dc/elements/1.1/" xmlns:rdf="http://www.w3.org/1999/02/22-rdf-syntax-ns#" xmlns:xlink="http://www.w3.org/1999/xlink"><title>VMware logo</title><desc>An information technology company based in Palo Alto, California, United States</desc><metadata><rdf:RDF><cc:Work rdf:about=""><dc:format>image/svg+xml</dc:format><dc:type rdf:resource="http://purl.org/dc/dcmitype/StillImage"/><dc:title/></cc:Work></rdf:RDF></metadata>


<g transform="matrix(1.25 0 0 -1.25 -375.9 370)">
	
		
			
				<defs>
					<rect id="vlpb" x="-193.8" y="-199.5" width="956.2" height="1237"/>
				</defs>
				<clipPath id="vlpa">
					<use width="100%" height="100%" overflow="visible" xlink:href="#vlpb"/>
				</clipPath>
				<g clip-path="url(#vlpa)">
					<g transform="translate(388.3 250.9)">
						<path d="m-21.72 23.2-6.571 18.3c-0.084 0.253-0.209 0.587-0.209 0.88 0 0.793 0.67 1.546 1.63 1.546 0.838 0 1.384-0.544 1.634-1.337l5.445-15.77 5.484 15.81c0.25 0.75 0.753 1.294 1.586 1.294h0.17c0.881 0 1.425-0.544 1.675-1.294l5.439-15.81 5.531 15.85c0.209 0.673 0.666 1.255 1.548 1.255 0.92 0 1.591-0.708 1.591-1.505 0-0.292-0.127-0.625-0.209-0.88l-6.613-18.34c-0.338-0.958-1.005-1.461-1.76-1.461h-0.125c-0.838 0-1.467 0.503-1.762 1.461l-5.397 15.55-5.444-15.55c-0.293-0.958-0.923-1.461-1.758-1.461h-0.088c-0.793 0-1.46 0.503-1.797 1.461" fill="#696566"/>
					</g>
					<g transform="translate(436.2 270)">
						<path d="m-21.72 23.2c0 0.883 0.712 1.637 1.591 1.637 0.927 0 1.637-0.713 1.637-1.637v-3.713c1.592 3.606 5.123 5.308 7.463 5.308 0.969 0 1.598-0.712 1.598-1.634 0-0.882-0.584-1.508-1.43-1.634-4.195-0.503-7.63-3.65-7.63-9.9v-7.353c0-0.881-0.67-1.634-1.592-1.634-0.923 0-1.636 0.716-1.636 1.634l-1e-3 18.93z" fill="#696566"/>
					</g>
					<g transform="translate(458.9 249.2)">
						<path d="m-21.72 23.2c-5.837 0-10.6 4.527-10.6 11.17v0.086c0 6.183 4.316 11.16 10.19 11.16 6.283 0 9.861-5.184 9.861-10.87 0-0.874-0.705-1.499-1.481-1.499h-15.36c0.448-4.645 3.692-7.259 7.477-7.259 2.631 0 4.556 1.038 6.12 2.491 0.247 0.205 0.534 0.371 0.906 0.371 0.778 0 1.397-0.623 1.397-1.373 0-0.372-0.164-0.747-0.497-1.034-2.011-1.949-4.397-3.24-8.01-3.24m6.286 12.41c-0.33 3.905-2.55 7.305-6.783 7.305-3.698 0-6.492-3.111-6.898-7.305z" fill="#696566"/>
					</g>
					<g transform="translate(413.4 255.9)">
						<path d="m-21.72 23.2v0.084c0 4.556 3.764 6.984 9.239 6.984 2.761 0 4.725-0.376 6.652-0.923v0.756c0 3.885-2.39 5.895-6.441 5.895-2.175 0-3.441-0.277-5.033-0.986-0.206-0.084-0.417-0.127-0.58-0.127-0.753 0-1.425 0.629-1.425 1.38 0 0.667 0.291 1.08 0.88 1.341 2.129 0.924 3.734 1.231 6.492 1.231 3.05 0 5.392-0.792 6.978-2.382 1.466-1.463 2.219-3.553 2.219-6.314v-11.93c0-0.917-0.669-1.588-1.552-1.588-0.916 0-1.537 0.67-1.537 1.505v2.062c-1.508-1.969-4.019-3.722-7.816-3.722-4.016 3e-3 -8.076 2.3-8.076 6.732m15.93 1.673v2.091c-1.592 0.459-3.727 0.92-6.359 0.92-4.05 0-6.311-1.758-6.311-4.473v-0.083c0-2.717 2.506-4.306 5.436-4.306 3.97 0 7.234 2.426 7.234 5.851" fill="#696566"/>
					</g>
					<g transform="translate(329.8 270.2)">
						<path d="m-21.72 23.2c-0.708 1.552-2.458 2.255-4.092 1.529-1.636-0.727-2.238-2.541-1.499-4.094l6.861-14.91c1.079-2.337 2.216-3.562 4.35-3.562 2.28 0 3.274 1.334 4.352 3.562 0 0 5.984 13.03 6.044 13.17 0.061 0.138 0.253 0.559 0.862 0.555 0.515-3e-3 0.948-0.414 0.948-0.966v-12.74c0-1.964 1.089-3.575 3.185-3.575 2.094 0 3.226 1.611 3.226 3.575v10.43c0 2.011 1.441 3.316 3.405 3.316s3.271-1.352 3.271-3.316v-10.43c0-1.964 1.093-3.575 3.185-3.575 2.094 0 3.232 1.611 3.232 3.575v10.43c0 2.011 1.435 3.316 3.4 3.316 1.961 0 3.273-1.352 3.273-3.316v-10.43c0-1.964 1.092-3.575 3.186-3.575 2.093 0 3.229 1.611 3.229 3.575v11.87c0 4.361-3.507 7.416-7.727 7.416-4.215 0-6.855-2.916-6.855-2.916-1.403 1.819-3.337 2.912-6.61 2.912-3.454 0-6.477-2.912-6.477-2.912-1.404 1.819-3.794 2.912-5.773 2.912-3.061 0-5.492-1.346-6.975-4.737l-4.381-10.33z" fill="#696566"/>
					</g>
					<g transform="translate(468.6 268.9)">
						<path d="m-21.72 23.2v0.018c0 1.459 1.184 2.688 2.672 2.688 1.509 0 2.677-1.216 2.677-2.677v-0.011c0-1.464-1.181-2.693-2.677-2.693-1.509 0-2.672 1.212-2.672 2.675m4.835 0.018v7e-3c0 1.2-0.927 2.184-2.163 2.184-1.225 0-2.166-1.001-2.166-2.191v-0.014c0-1.197 0.93-2.181 2.166-2.181 1.221 0 2.163 0.999 2.163 2.195" fill="#696566"/>
					</g>
					<g transform="translate(470.3 270)">
						<path d="m-21.72 23.2c0 0.159 0.127 0.286 0.288 0.286h0.892c0.336 0 0.595-0.095 0.756-0.265 0.147-0.143 0.227-0.35 0.227-0.59v-8e-3c0-0.408-0.206-0.657-0.517-0.788l0.394-0.48c0.055-0.072 0.092-0.131 0.092-0.219 0-0.158-0.134-0.262-0.27-0.262-0.127 0-0.213 0.065-0.28 0.147l-0.555 0.702h-0.455v-0.564c0-0.159-0.123-0.284-0.283-0.284-0.161 0-0.288 0.126-0.288 0.284v2.041zm1.148-0.972c0.278 0 0.431 0.145 0.431 0.366v9e-3c0 0.241-0.164 0.371-0.441 0.371h-0.569v-0.745h0.579z" fill="#696566"/>
					</g>
				</g>
			
		
	
</g>
</svg>
