<svg xmlns="http://www.w3.org/2000/svg" width="135.367" height="21.453" viewBox="0 0 135.367 21.453">
  <g id="Factmata_logo" data-name="Factmata logo" transform="translate(0.002)">
    <path id="F" d="M.459,12.742S.472,4.362.472,1.761a.894.894,0,0,1,.06-.343A1.91,1.91,0,0,1,1.222.511,1.432,1.432,0,0,1,1.97.282c1.174-.011,6.763,0,6.763,0a.505.505,0,0,1,.506.507V2.336a.505.505,0,0,1-.506.507l-5.67.007V5.638H6.514a.5.5,0,0,1,.5.5v1.5a.5.5,0,0,1-.5.5H3.064v4.6a.514.514,0,0,1-.514.514H.976a.514.514,0,0,1-.517-.512Z" transform="translate(30.783 3.902)" fill="#33375a" fill-rule="evenodd"/>
    <path id="A1" d="M.084,12.788c.432-1.177,4.08-10.936,4.08-10.936C4.548.831,4.926.36,5.643.371,6.422.4,6.731.993,7.094,1.962v.013c1.09,2.841,4.1,10.813,4.1,10.813a.377.377,0,0,1-.353.509H8.924a.375.375,0,0,1-.353-.249l-.7-1.864H3.387L2.7,13.048a.375.375,0,0,1-.353.249H.437a.377.377,0,0,1-.353-.509Zm6.83-4.1-1.3-3.376c-.035.1-.644,1.7-1.279,3.376Z" transform="translate(41.52 3.826)" fill="#33375a" fill-rule="evenodd"/>
    <path id="C" d="M10.39,11.666a6.81,6.81,0,0,1-3.827,1.259,6.762,6.762,0,0,1-5.281-2.878A7,7,0,0,1,.192,5.965,6.875,6.875,0,0,1,3.178.894a7.072,7.072,0,0,1,7.085.117l.477.293a.3.3,0,0,1,.1.407L9.8,3.4a.292.292,0,0,1-.4.1,8.976,8.976,0,0,0-1.3-.729,3.915,3.915,0,0,0-4.64,1.406,4.181,4.181,0,0,0,1.116,5.5,3.92,3.92,0,0,0,4.054.058.008.008,0,0,0,.008,0L9.4,9.252a.294.294,0,0,1,.4.1l1.032,1.694a.3.3,0,0,1-.1.407Z" transform="translate(55.139 4.204)" fill="#33375a" fill-rule="evenodd"/>
    <path id="T1" d="M1,.371H9.948a.5.5,0,0,1,.5.505v.668a1.227,1.227,0,0,1,.013.154.955.955,0,0,1-.013.181v.543a.5.5,0,0,1-.5.505l-3.174.011v9.868a.507.507,0,0,1-.518.492H4.714a.515.515,0,0,1-.513-.505V2.94L1,2.924a.5.5,0,0,1-.5-.505V.876A.5.5,0,0,1,1,.371Z" transform="translate(69.719 3.826)" fill="#33375a" fill-rule="evenodd"/>
    <path id="M" d="M.213,12.759V1.638A1.318,1.318,0,0,1,1.548.321c.648,0,1.067.627,1.326,1.266L6.11,8.819c.668-1.571,3.438-7.7,3.438-7.7a1.309,1.309,0,0,1,1.3-.8A1.344,1.344,0,0,1,12,1.669v11.09a.5.5,0,0,1-.5.505H9.92a.5.5,0,0,1-.5-.505l.008-5.106c-.745,1.683-1.179,2.8-2.023,4.51-.328.635-.622,1.05-1.217,1.066a1.46,1.46,0,0,1-1.377-1.05L2.788,7.644c0,1.458-.006,5.114-.006,5.114a.5.5,0,0,1-.5.505H.717A.5.5,0,0,1,.213,12.759Z" transform="translate(84.493 3.862)" fill="#33375a" fill-rule="evenodd"/>
    <path id="A2" d="M.09,12.788C.521,11.611,4.169,1.852,4.169,1.852,4.553.831,4.932.36,5.648.371,6.427.4,6.737.993,7.1,1.962v.013c1.09,2.841,4.1,10.813,4.1,10.813a.377.377,0,0,1-.353.509H8.93a.375.375,0,0,1-.353-.249l-.7-1.864H3.392l-.683,1.864a.375.375,0,0,1-.353.249H.442a.376.376,0,0,1-.352-.509Zm6.83-4.1-1.3-3.376c-.035.1-.644,1.7-1.28,3.376Z" transform="translate(100.246 3.826)" fill="#33375a" fill-rule="evenodd"/>
    <path id="T2" d="M1,.371H9.948a.5.5,0,0,1,.5.505V2.419a.5.5,0,0,1-.5.505l-3.174.014v9.868a.507.507,0,0,1-.518.492H4.714a.515.515,0,0,1-.513-.505V2.94L1,2.924a.5.5,0,0,1-.5-.505V.876A.5.5,0,0,1,1,.371Z" transform="translate(112.883 3.826)" fill="#33375a" fill-rule="evenodd"/>
    <path id="A3" d="M.035,12.788C.468,11.611,4.116,1.852,4.116,1.852,4.5.831,4.877.36,5.594.371,6.373.4,6.685.992,7.046,1.962v.013c1.09,2.841,4.1,10.813,4.1,10.813a.377.377,0,0,1-.353.509H8.876a.375.375,0,0,1-.353-.249l-.406-1.1-.291-.764H3.343L2.66,13.045a.375.375,0,0,1-.353.249H.388a.376.376,0,0,1-.353-.506Zm6.831-4.1-1.3-3.376c-.035.1-.644,1.7-1.28,3.376Z" transform="translate(124.198 3.815)" fill="#33375a" fill-rule="evenodd"/>
    <path id="Green1" d="M7.62,2.279c-2.225,0-1.981,1.033-3.247,1.033H1.616a1.57,1.57,0,0,1,0-3.134h10.2a1.6,1.6,0,0,1,1.5,1.567,1.6,1.6,0,0,1-1.5,1.567h-.955C9.717,3.312,9.842,2.279,7.62,2.279Z" transform="translate(-0.143 5.636)" fill="#3dbf5d" fill-rule="evenodd" opacity="0.6"/>
    <path id="Red2" d="M5.844,1.565A1.534,1.534,0,0,0,4.311.031H1.555a1.534,1.534,0,0,0,0,3.066H4.311A1.534,1.534,0,0,0,5.844,1.565Z" transform="translate(-0.022 12.84)" fill="#ef2569" fill-rule="evenodd" opacity="0.6"/>
    <path id="Red3" d="M5.229,1.565A1.534,1.534,0,0,0,3.7.031H1.553a1.534,1.534,0,0,0,0,3.066H3.7A1.534,1.534,0,0,0,5.229,1.565Z" transform="translate(17.446 12.84)" fill="#ef2569" fill-rule="evenodd" opacity="0.6"/>
    <path id="Green2" d="M13.222-3a1.534,1.534,0,0,1-1.533,1.534H1.58A1.534,1.534,0,0,1,.046-3,1.534,1.534,0,0,1,1.58-4.529H11.689A1.534,1.534,0,0,1,13.222-3Z" transform="translate(4.55 22.915)" fill="#3dbf5d" fill-rule="evenodd" opacity="0.6"/>
    <path id="Tick" d="M14.924.1A2.131,2.131,0,0,1,16.37,3.687c-2.893,2.733-5.6,5.277-8.525,7.967a2.143,2.143,0,0,1-.265.214,2.865,2.865,0,0,1-3.524-.246C2.936,10.559,1.829,9.475.718,8.4A2.156,2.156,0,0,1,1.61,4.916a2.17,2.17,0,0,1,2.073.5C4.361,6.078,5,6.772,5.7,7.4c.376.331.984-.415,1.528-.925C9.37,4.473,11.3,2.638,13.46.649a1.77,1.77,0,0,1,.387-.28A2.018,2.018,0,0,1,14.924.1Z" transform="translate(5.458 4.384)" fill="#1d9af2" fill-rule="evenodd"/>
    <path id="Red1" d="M13.222-3a1.534,1.534,0,0,1-1.533,1.534H1.58A1.534,1.534,0,0,1,.046-3,1.534,1.534,0,0,1,1.58-4.529H11.689A1.534,1.534,0,0,1,13.222-3Z" transform="translate(4.55 4.529)" fill="#ef2569" fill-rule="evenodd" opacity="0.6"/>
  </g>
</svg>
