<?xml version="1.0" encoding="UTF-8" standalone="no"?>
<svg xmlns:rdf="http://www.w3.org/1999/02/22-rdf-syntax-ns#" xmlns="http://www.w3.org/2000/svg" height="248.02pt" width="162pt" version="1.1" xmlns:cc="http://creativecommons.org/ns#" xmlns:dc="http://purl.org/dc/elements/1.1/" viewBox="0 0 162 248.022">
 <g>
  <path fill="#8c1515" d="m35.872 1.1236-34.558 33.832v90.907l30.041 30.665h13.776c-0.33541 0.92261-0.77516 2.3452 0.18119 3.7375 1.0401 1.5433 2.835 1.5433 3.5228 1.5433 0.80522 0 1.9291-0.10059 3.6571-0.33551h0.02027s0.72132 0.64079-1.4762 1.3621c-1.8117 0.63746-3.3919 1.6909-3.912 3.5025-0.03436 0.13399-0.04703 0.27196-0.08053 0.38918h-45.716l-0.013433 46.465 34.558 33.953h90.887l34.558-33.905v-87.077l-30.047-30.618h-25.478c-0.0172 0-0.0403-0.0134-0.0403-0.0134-1.1239-0.67099-2.2781-1.3789-3.3349-2.0667l-0.38917-0.24828-0.0671-0.04026c-0.57036-0.35214-1.1709-0.78508-1.8251-1.3554-0.57036-0.45294-1.0434-0.90584-1.3957-1.3085l-0.10066-0.10066c-0.67099-0.70459-1.2581-1.3789-1.7111-1.966 3.9756 1.1407 8.3071 1.4292 10.387 1.4963h0.24828c0.13399 0 0.27196 0.02027 0.38918 0.02027l0.18116 0.0134c0.50323 0.03436 0.88907 0.11712 1.1407 0.20129 0.26842 0.10049 0.5066 0.22159 0.72469 0.32208l1.0736 0.40261c0.25165 0.06699 0.52 0.08053 0.80522 0.08053 1.5601 0 3.0195-0.93941 3.6904-2.4156 0.21816-0.50327 0.5536-1.5064 0.30195-2.8316l45.442 0.03367v-50.76l-34.551-33.886h-90.887z"/>
  <path fill="#fff" d="m157.19 36.804-32.1-31.487h-87.55l-32.108 31.436v87.382l27.628 28.182 17.815 0.0172c-1.9963 1.7949-2.6169 3.6569-2.9357 4.5628-0.68775 1.9962-1.4091 2.5665 4.8479 1.6943 1.9795-0.28515 5.5862-1.5601 7.2803-2.7008 1.6607-1.1407 4.9484-0.21816 4.6633 2.2479-1.5433 3.7743-5.502 6.1397-9.2768 6.6095-8.6893 1.0904-4.9317 4.3279-4.9317 4.3279 0.95619 0.65426 1.644 1.2917 2.1305 1.8621h-4.2273v-0.0172h-42.978l-0.017178 40.478 32.091 31.537h87.567l32.09-31.487v-83.539l-27.628-28.148h-22.327c-1.7781-1.1911-4.177-2.5163-6.3578-3.9421 0-0.01718 0-0.01718-0.0172-0.01718-0.83874-0.48647-1.6607-1.0903-2.4491-1.7781-0.65421-0.52001-1.2413-1.0736-1.7446-1.6272-1.9291-2.013-3.3717-4.1099-3.7576-5.0829-0.72133-1.7781-0.55355-4.026 1.0736-3.1034 4.1267 2.3821 10.904 2.835 13.42 2.9189 0.28515 0 2.3149 0.2349 2.8014 0.38564 0.50322 0.20141 1.2749 0.57034 1.2749 0.57034 1.0233 0.43614 2.8685-0.97294 0.73812-3.5731-0.55359-0.88907-1.3923-1.9124-2.3821-2.9524h47.354v-44.756"/>
  <path d="m48.988 11.889l-37.05 36.297v104.79l31.537 32.17h29.607c5.053-2.22 6.123-2.03 7.527-4.86 0.21-0.45 0.418-1.75 0.44-3.02 0.063-0.36 0.693-4.18-1.153-3.25-3.166 1.59-9.562-2.61-14.343-0.11-4.781 2.47-1.279-3.27-0.608-4.26 0 0 2.558-3.37 6.416-5.6 0.147-0.08 0.273-0.16 0.377-0.25 0.378-0.21 0.756-0.39 1.155-0.58 2.935-1.37 11.3-6.94 12.81-8.68 0.902-1.01 2.496-3.32 2.559-4.6 0.272-1.11 0.483-2.87-0.586-3.56-1.594-1.05-2.874 1-5.369 2.12-2.496 1.11-4.383 1.57-6.606 1.65-2.138 0.07-4.193-0.75-5.472-0.56-1.28 0.21-2.035-0.76 0.314-3.13 1.069-1.07 1.532-1.55 2.035-1.91 5.578-3.58 10.589-3.62 13.399-9.98 0 0 2.181-5.7-2.034-3.27-2.306 1.34-3.564 3.27-10.17 3.27-6.584 0-9.164 3.13-10.275 4.49 0 0-4.486 6.27-3.375-2.52 1.133-8.76 2.83-13.23 6.961-16.65 3.564-2.93 12.412-6.87 15.6-11.21 1.635-1.62 5.746-6.32 3.355-10.299-1.007-1.678-3.459 2.669-5.996 3.229-2.894 0.76-6.563 1.7-9.373 1.13-3.481-0.69-5.704 0.63-7.004 1.22s-3.754-1.28-0.756-4.698c4.026-4.592 13.757-10.588 20.299-14.174 0.902-0.378 3.102-1.342 5.115-2.621 0.042-0.022 0.084-0.043 0.106-0.043 0.503-0.231 1.237-0.672 1.656-1.238 1.426-1.196 2.412-2.536 2.076-3.899-0.293-1.237-0.903-1.657-2.832-1.867-1.53-0.147-4.066 1.636-6.205 1.469-3.271-0.273-8.074 0.481-6.48-1.846 1.488-2.16 3.899-3.545 4.591-3.922 1.342-0.608 3.146-1.404 5.809-2.6 4.173-1.887 3.585-6.625 1.971-6.792-2.517-0.273-9.31 1.906-4.53-3.545 0 0 2.266-2.285 4.551-3.774 1.803-1.048 3.292-1.447 5.074-2.098 1.112-0.398 4.028-2.977-2.892-3.25 0 0-3.859 0.105-3.125-1.677 0.608-1.174 4.006-3.313 4.006-3.313s2.724-1.867 3.836-2.978c1.069-1.028 1.824-1.845 1.761-2.768-0.042-1.048-2.768-2.348-3.922-3.816-0.817-1.049-0.125-1.425 0.336-1.551 0.252-0.041 0.546-0.084 0.903-0.084 2.809 0.021 3.606-2.789 5.246-10.086 0.48-2.181 0.52-2.641 1.23-2.662 0.07 0 0.11 0.021 0.15 0.021 0 0 0.69 3.69 1.7 7.821 0.86 2.285 1.8 3.25 3.46 3.228 0.33 0 0.63 0.041 0.88 0.084 0.46 0.126 1.17 0.505 0.33 1.553-0.63 0.818-2.51 2.139-2.66 2.936-0.54 2.264 1.62 3.082 3.82 3.25 3.12 0.209 1.82 2.159-1.55 4.654-3.25 2.411 5.07 7.57 5.07 7.57 4.74 3.67 1.36 4.612 0.4 5.137-0.97 0.503-3.63 2.139-0.97 3.187 2.69 1.028 6.38 4.739 6.38 4.739 4.76 5.451-2.02 3.293-4.53 3.545-1.62 0.167-2.2 4.926 1.97 6.793 6.35 2.872 7.76 3.355 10 5.033 4.19 3.103 1.97 5.745-3.27 4.822 0 0-3.35-0.838-5.7-0.377-1.47 0.273-2.48 0.608-3.17 0.965-0.36 0.545-1.19 2.704 6.1 4.947 3.48 1.09 7.8 3.713 11.64 6.711l59.81-0.062-0.01-48.457-37.05-36.338h-105.3zm90.312 118.05c1.72 2.85 2.72 6.58 3.46 12.06 0.02 3.29-4.32 1.69-5.73 0.83-0.98-0.67-2.28-1.29-3.96-1.69-3.17-0.76-10.71-4.07-12.77-4.81-2.1-0.77-3.63 0.78-3.88 1.37h0.02c-0.54 1 0.57 3.02 0.57 3.02 2.96 6.71 8.41 6.35 14.4 10.65 8.24 5.87 3.84 7.11 2.14 6.23-1.67-0.9-4.44-0.34-4.44-0.34-6.65 1.83-8.64-0.94-12.54-1.97-3.88-1.05-0.69 3.78 0.71 5.39 1.49 1.74 9.88 7.32 12.79 8.68 6.36 2.96 9.67 7.76 11.64 13.86 1.87 5.77-0.17 4.51-1.68 3.8-1.51-0.72-1.95-2.27-5.7-2.18-3.77 0.08-5.89-0.19-8.58-2.31-0.71-0.55-1.28-1.18-1.76-1.7-0.04-0.02-0.06-0.04-0.08-0.06-2.58-1.97-2.08 4.57-1.55 5.64 1.86 3.75 3.12 2.22 13.86 7.95 5.09 2.72 6.29 6.37 6.83 7.9 0.86 2.48 1.74 3.19-6.06 2.1-2.49-0.34-6.98-1.93-9.12-3.38-2.05-1.42-6.18-0.27-5.81 2.81 1.93 4.72 6.88 7.68 11.6 8.26 4.13 0.53 6 1.43 6.75 2.35 2.26 2.58-1.93 6.36-1.93 6.36-2.1 2.43 0.17 5.28 1.72 6.12 2.52 1.28 7.4 4.21 9.02 8.41 8.47 21.8 0.27 15.55-3.74 13.06-4.02-2.5-11.68-8.91-18.66-8.35-6.98 0.55-9.31 0.93-13.46-2.37-4.13-3.29-3.73 2.04-3.73 2.04v26.29c0.25 5.89 1.34 11.51 6.02 16.27 3.83 3.93 6.75 3.19 12.16 9.8 2.49 3.04 10.63 6.31 16.06 6.37l10.42 0.02 37.05-36.34v-100.04l-31.51-32.1h-20.53zm-127.34 88.97l-0.021 43.09 37.05 36.36h11.91c11.198-0.55 15.391-9.23 18.788-14.57 2.558-4.05 7.088-7.49 9.961-10.43 3.04-3.08 3.586-10.13 3.669-17.76v-15.93l0.022 0.16v-3.81h0.021v-2.54h0.002v-0.59-6.87c0-1.6-1.845-1.72-5.871 2.64-4.047 4.34-10.819 3.98-14.74 4.34-3.921 0.35-15.202 6.23-18.432 10.44-1.992 2.62-4.823 0.46-3.67-4.7h-0.042c0.545-2.32 1.551-5.45 3.166-9.58 2.222-5.76 10.568-9.14 10.568-9.14s0.86-0.38 1.615-1.11h-53.996z" transform="matrix(.80001 0 0 .80001 -.00065308 0)" fill="#8c1515"/>
 </g>
</svg>
