<svg width="2016" height="703" viewBox="0 0 2016 703" fill="none" xmlns="http://www.w3.org/2000/svg">
<path d="M766.251 523.254L795.698 486.91C811.975 501.82 830.116 509.276 850.121 509.276C863.54 509.276 874.598 507.287 883.296 503.311C891.993 499.335 896.342 493.868 896.342 486.91C896.342 475.106 886.713 469.204 867.454 469.204C862.235 469.204 854.469 469.826 844.157 471.068C833.844 472.311 826.078 472.932 820.859 472.932C788.802 472.932 772.774 461.439 772.774 438.452C772.774 431.867 775.445 425.406 780.788 419.069C786.131 412.732 792.344 408.073 799.426 405.09C776.688 390.305 765.319 369.368 765.319 342.281C765.319 320.91 773.147 303.266 788.802 289.35C804.458 275.31 823.717 268.289 846.579 268.289C864.472 268.289 879.444 271.644 891.496 278.354L909.761 257.107L942.005 286.368L919.826 302.583C927.529 314.262 931.381 328.054 931.381 343.959C931.381 366.697 924.423 384.9 910.507 398.567C896.715 412.111 879.258 418.882 858.135 418.882C854.78 418.882 850.307 418.572 844.716 417.951L837.074 416.832C836.204 416.832 832.85 418.199 827.01 420.933C821.294 423.542 818.436 426.275 818.436 429.133C818.436 434.103 822.723 436.588 831.297 436.588C835.148 436.588 841.609 435.656 850.68 433.793C859.75 431.929 867.516 430.997 873.977 430.997C919.329 430.997 942.005 449.2 942.005 485.606C942.005 505.734 932.934 521.514 914.794 532.945C896.653 544.501 874.785 550.279 849.189 550.279C818.623 550.279 790.977 541.27 766.251 523.254ZM812.845 342.468C812.845 354.272 816.076 363.777 822.537 370.983C829.122 378.066 837.944 381.607 849.002 381.607C860.061 381.607 868.572 378.128 874.536 371.17C880.5 364.212 883.482 354.644 883.482 342.468C883.482 332.403 880.252 323.892 873.791 316.934C867.454 309.976 859.191 306.497 849.002 306.497C838.317 306.497 829.619 309.852 822.91 316.561C816.2 323.271 812.845 331.906 812.845 342.468ZM1088.12 315.816C1079.8 310.349 1070.67 307.615 1060.73 307.615C1049.92 307.615 1040.29 312.523 1031.84 322.339C1023.51 332.155 1019.35 344.145 1019.35 358.31V472H972.757V272.39H1019.35V290.655C1032.4 275.993 1049.73 268.662 1071.35 268.662C1087.26 268.662 1099.43 271.085 1107.88 275.931L1088.12 315.816ZM1235.18 452.058C1230.95 459.016 1223.56 464.731 1213 469.204C1202.56 473.553 1191.63 475.728 1180.2 475.728C1158.7 475.728 1141.8 470.385 1129.5 459.699C1117.2 448.889 1111.05 433.606 1111.05 413.85C1111.05 390.739 1119.68 372.661 1136.96 359.614C1154.35 346.568 1179.01 340.045 1210.95 340.045C1216.41 340.045 1222.88 340.977 1230.33 342.84C1230.33 319.357 1215.48 307.615 1185.79 307.615C1168.27 307.615 1153.61 310.535 1141.8 316.375L1131.74 280.218C1147.77 272.514 1166.84 268.662 1188.96 268.662C1219.4 268.662 1241.7 275.62 1255.86 289.536C1270.03 303.328 1277.11 329.545 1277.11 368.188V410.868C1277.11 437.458 1282.45 454.17 1293.14 461.004C1289.29 467.713 1285 471.814 1280.28 473.305C1275.56 474.92 1270.15 475.728 1264.07 475.728C1257.36 475.728 1251.33 473.243 1245.99 468.272C1240.64 463.302 1237.04 457.897 1235.18 452.058ZM1230.7 378.066C1222.75 376.45 1216.79 375.643 1212.81 375.643C1176.03 375.643 1157.64 387.695 1157.64 411.8C1157.64 429.692 1168.02 438.638 1188.77 438.638C1216.73 438.638 1230.7 424.66 1230.7 396.703V378.066ZM1456.03 472V459.885C1452.18 464.11 1445.66 467.838 1436.46 471.068C1427.27 474.174 1417.76 475.728 1407.95 475.728C1380.12 475.728 1358.19 466.906 1342.16 449.262C1326.25 431.618 1318.3 407.016 1318.3 375.456C1318.3 343.897 1327.43 318.239 1345.7 298.483C1364.09 278.602 1387.07 268.662 1414.66 268.662C1429.82 268.662 1443.61 271.768 1456.03 277.981V198.025L1502.63 186.842V472H1456.03ZM1456.03 320.102C1446.09 312.15 1435.72 308.174 1424.91 308.174C1406.27 308.174 1391.92 313.89 1381.86 325.321C1371.79 336.628 1366.76 352.905 1366.76 374.152C1366.76 415.652 1386.76 436.402 1426.77 436.402C1431.25 436.402 1436.71 435.097 1443.17 432.488C1449.76 429.754 1454.05 427.021 1456.03 424.287V320.102ZM1585.94 195.043C1593.39 195.043 1599.73 197.714 1604.95 203.057C1610.29 208.276 1612.96 214.613 1612.96 222.068C1612.96 229.523 1610.29 235.922 1604.95 241.265C1599.73 246.483 1593.39 249.092 1585.94 249.092C1578.48 249.092 1572.09 246.483 1566.74 241.265C1561.52 235.922 1558.91 229.523 1558.91 222.068C1558.91 214.613 1561.52 208.276 1566.74 203.057C1572.09 197.714 1578.48 195.043 1585.94 195.043ZM1561.9 472V310.597H1536.36V272.39H1609.05V472H1561.9ZM1650.43 371.729C1650.43 341.287 1659.19 316.499 1676.71 297.364C1694.35 278.229 1717.58 268.662 1746.41 268.662C1776.73 268.662 1800.27 277.857 1817.05 296.246C1833.82 314.635 1842.21 339.796 1842.21 371.729C1842.21 403.537 1833.63 428.823 1816.49 447.585C1799.47 466.347 1776.11 475.728 1746.41 475.728C1716.09 475.728 1692.49 466.284 1675.59 447.398C1658.81 428.388 1650.43 403.165 1650.43 371.729ZM1698.88 371.729C1698.88 415.714 1714.73 437.707 1746.41 437.707C1760.95 437.707 1772.44 431.991 1780.89 420.56C1789.46 409.129 1793.75 392.852 1793.75 371.729C1793.75 328.365 1777.97 306.683 1746.41 306.683C1731.87 306.683 1720.32 312.399 1711.74 323.83C1703.17 335.261 1698.88 351.227 1698.88 371.729Z" fill="#232D36"/>
<path d="M405.5 321L204 436.5L405.5 552L607 436.5L405.5 321Z" stroke="url(#paint0_linear_94_11)" stroke-width="59" stroke-linejoin="round"/>
<path d="M405.5 208L204 323.5L405.5 439L607 323.5L405.5 208Z" stroke="url(#paint1_linear_94_11)" stroke-width="59" stroke-linejoin="round"/>
<path d="M204 436L406 321" stroke="url(#paint2_linear_94_11)" stroke-width="59" stroke-linejoin="bevel"/>
<defs>
<linearGradient id="paint0_linear_94_11" x1="178" y1="436" x2="547.5" y2="436" gradientUnits="userSpaceOnUse">
<stop stop-color="#F9D100"/>
<stop offset="1" stop-color="#F97700"/>
</linearGradient>
<linearGradient id="paint1_linear_94_11" x1="631.5" y1="323" x2="261.5" y2="323" gradientUnits="userSpaceOnUse">
<stop stop-color="#F9D100"/>
<stop offset="1" stop-color="#F97700"/>
</linearGradient>
<linearGradient id="paint2_linear_94_11" x1="178" y1="436" x2="546.987" y2="433.811" gradientUnits="userSpaceOnUse">
<stop stop-color="#F9D100"/>
<stop offset="1" stop-color="#F97700"/>
</linearGradient>
</defs>
</svg>
