<svg width="512" height="120" viewBox="0 0 512 120" fill="none" xmlns="http://www.w3.org/2000/svg">
<g clip-path="url(#clip0_0_3)">
<path d="M51.9696 11.1015L103.539 39.3842V55.8626L51.9696 27.58V11.1015Z" fill="#FF7C00" fill-opacity="0.75"/>
<path d="M103.521 39.3847L51.7627 67.7738V84.3583L103.521 55.9692V39.3847Z" fill="#FF7C00"/>
<path d="M-0.000595093 39.3847L51.7627 67.7738V84.3584L-0.000595093 55.9693V39.3847Z" fill="#FF7C00" fill-opacity="0.75"/>
<path d="M51.9641 10.9954L0.00665283 39.3842V55.9688L51.9641 27.5801V10.9954Z" fill="#FF7C00"/>
<path d="M51.9696 39.703L103.539 67.9855V84.464L51.9696 56.1815V39.703Z" fill="#FF7C00" fill-opacity="0.75"/>
<path d="M103.521 67.9851L51.7627 96.3742V112.959L103.521 84.5696V67.9851Z" fill="#FF7C00"/>
<path d="M-0.000595093 67.9851L51.7627 96.3742V112.959L-0.000595093 84.5697V67.9851Z" fill="#FF7C00" fill-opacity="0.75"/>
<path d="M51.9641 39.5958L0.00665283 67.9845V84.5691L51.9641 56.1805V39.5958Z" fill="#FF7C00"/>
<path d="M158.626 110.107L168.186 98.3085C173.47 103.149 179.36 105.569 185.854 105.569C190.211 105.569 193.801 104.924 196.624 103.633C199.448 102.342 200.86 100.567 200.86 98.3085C200.86 94.4765 197.734 92.5604 191.481 92.5604C189.787 92.5604 187.266 92.7621 183.918 93.1655C180.57 93.5688 178.049 93.7706 176.355 93.7706C165.947 93.7706 160.744 90.0393 160.744 82.5769C160.744 80.4389 161.611 78.3413 163.346 76.2841C165.081 74.2269 167.097 72.7143 169.396 71.7462C162.015 66.946 158.324 60.1491 158.324 51.3555C158.324 44.4174 160.864 38.6895 165.947 34.1716C171.03 29.6135 177.283 27.3343 184.705 27.3343C190.513 27.3343 195.374 28.4235 199.287 30.6017L205.217 23.704L215.684 33.2035L208.484 38.4675C210.985 42.2593 212.235 46.7369 212.235 51.9C212.235 59.2819 209.976 65.1913 205.458 69.6285C200.981 74.0252 195.314 76.2236 188.456 76.2236C187.367 76.2236 185.915 76.1228 184.1 75.9211L181.619 75.5581C181.337 75.5581 180.247 76.0018 178.351 76.8892C176.496 77.7364 175.568 78.6238 175.568 79.5515C175.568 81.1651 176.96 81.9718 179.743 81.9718C180.994 81.9718 183.091 81.6692 186.035 81.0642C188.98 80.4592 191.502 80.1566 193.6 80.1566C208.323 80.1566 215.684 86.0661 215.684 97.885C215.684 104.42 212.739 109.543 206.85 113.254C200.961 117.005 193.861 118.881 185.552 118.881C175.628 118.881 166.653 115.956 158.626 110.107ZM173.753 51.416C173.753 55.2481 174.802 58.3339 176.899 60.6735C179.038 62.9727 181.901 64.1224 185.492 64.1224C189.081 64.1224 191.844 62.9929 193.78 60.734C195.717 58.4751 196.685 55.3691 196.685 51.416C196.685 48.1487 195.636 45.3854 193.538 43.1266C191.481 40.8677 188.799 39.7382 185.492 39.7382C182.022 39.7382 179.199 40.8273 177.02 43.0056C174.842 45.1838 173.753 47.9872 173.753 51.416Z" fill="#FF7C00"/>
<path d="M263.121 42.7636C260.418 40.9887 257.453 40.1013 254.227 40.1013C250.718 40.1013 247.591 41.6946 244.848 44.8813C242.145 48.0679 240.794 51.9605 240.794 56.5591V93.468H225.667V28.6655H240.794V34.5952C245.03 29.8353 250.656 27.4553 257.676 27.4553C262.839 27.4553 266.792 28.242 269.535 29.8152L263.121 42.7636Z" fill="#FF7C00"/>
<path d="M314.734 86.9938C313.362 89.2527 310.961 91.1083 307.533 92.5604C304.145 93.9722 300.595 94.6781 296.884 94.6781C289.906 94.6781 284.419 92.9437 280.426 89.4746C276.432 85.9653 274.435 81.0037 274.435 74.59C274.435 67.0872 277.239 61.2181 282.846 56.9825C288.493 52.7471 296.5 50.6294 306.867 50.6294C308.642 50.6294 310.74 50.932 313.16 51.5369C313.16 43.9131 308.34 40.1013 298.699 40.1013C293.012 40.1013 288.251 41.0492 284.419 42.9451L281.152 31.2068C286.356 28.7058 292.547 27.4553 299.728 27.4553C309.61 27.4553 316.851 29.7143 321.45 34.2321C326.048 38.7096 328.348 47.2208 328.348 59.7658V73.6219C328.348 82.2541 330.082 87.6796 333.55 89.8981C332.3 92.0763 330.909 93.4075 329.376 93.8916C327.842 94.416 326.088 94.6781 324.112 94.6781C321.933 94.6781 319.977 93.8714 318.243 92.2579C316.508 90.6444 315.339 88.8897 314.734 86.9938ZM313.28 62.9727C310.699 62.4483 308.763 62.1862 307.472 62.1862C295.532 62.1862 289.563 66.0989 289.563 73.9244C289.563 79.733 292.931 82.6374 299.668 82.6374C308.743 82.6374 313.28 78.0994 313.28 69.0234V62.9727Z" fill="#FF7C00"/>
<path d="M386.433 93.468V89.5351C385.183 90.9066 383.066 92.1167 380.08 93.1655C377.095 94.1739 374.01 94.6781 370.823 94.6781C361.788 94.6781 354.667 91.8142 349.464 86.0863C344.3 80.3582 341.719 72.3714 341.719 62.1257C341.719 51.8799 344.684 43.5501 350.613 37.1365C356.584 30.6824 364.046 27.4553 373.001 27.4553C377.922 27.4553 382.399 28.4638 386.433 30.4807V4.52341L401.56 0.893017V93.468H386.433ZM386.433 44.1552C383.206 41.5736 379.838 40.2828 376.329 40.2828C370.278 40.2828 365.619 42.1383 362.352 45.8494C359.085 49.5202 357.451 54.8043 357.451 61.7021C357.451 75.1749 363.945 81.9113 376.934 81.9113C378.386 81.9113 380.161 81.4877 382.259 80.6407C384.396 79.7532 385.788 78.8658 386.433 77.9784V44.1552Z" fill="#FF7C00"/>
<path d="M428.606 3.5553C431.027 3.5553 433.084 4.42257 434.778 6.15709C436.512 7.85127 437.38 9.9085 437.38 12.3288C437.38 14.749 436.512 16.8264 434.778 18.561C433.084 20.2551 431.027 21.1022 428.606 21.1022C426.186 21.1022 424.109 20.2551 422.374 18.561C420.68 16.8264 419.833 14.749 419.833 12.3288C419.833 9.9085 420.68 7.85127 422.374 6.15709C424.109 4.42257 426.186 3.5553 428.606 3.5553ZM420.802 93.468V41.0693H412.512V28.6655H436.109V93.468H420.802Z" fill="#FF7C00"/>
<path d="M449.542 60.9155C449.542 51.0328 452.385 42.9854 458.073 36.7734C463.802 30.5614 471.344 27.4553 480.702 27.4553C490.545 27.4553 498.189 30.4404 503.634 36.4104C509.08 42.3803 511.802 50.5487 511.802 60.9155C511.802 71.2419 509.02 79.4507 503.453 85.5417C497.926 91.6327 490.344 94.6781 480.702 94.6781C470.861 94.6781 463.197 91.6125 457.71 85.4812C452.264 79.3095 449.542 71.121 449.542 60.9155ZM465.273 60.9155C465.273 75.1951 470.417 82.3348 480.702 82.3348C485.423 82.3348 489.153 80.4792 491.896 76.7682C494.679 73.0572 496.071 67.7729 496.071 60.9155C496.071 46.8377 490.948 39.7987 480.702 39.7987C475.983 39.7987 472.232 41.6542 469.448 45.3654C466.665 49.0764 465.273 54.2597 465.273 60.9155Z" fill="#FF7C00"/>
</g>
<defs>
<clipPath id="clip0_0_3">
<rect width="512" height="119.202" fill="white"/>
</clipPath>
</defs>
</svg>
