<?xml version="1.0" standalone="no"?>
<!DOCTYPE svg PUBLIC "-//W3C//DTD SVG 20010904//EN"
 "http://www.w3.org/TR/2001/REC-SVG-20010904/DTD/svg10.dtd">
<svg version="1.0" xmlns="http://www.w3.org/2000/svg"
 width="200.000000pt" height="200.000000pt" viewBox="0 0 200.000000 200.000000"
 preserveAspectRatio="xMidYMid meet">

<g transform="translate(0.000000,200.000000) scale(0.100000,-0.100000)"
fill="#000000" stroke="none">
<path d="M136 1865 c-21 -7 -54 -28 -72 -46 -67 -65 -65 -32 -62 -876 l3 -761
30 -44 c17 -23 49 -53 70 -65 l40 -23 848 0 c688 0 854 3 880 13 44 19 103 87
116 134 16 56 15 1468 -1 1531 -15 62 -78 125 -140 140 -74 19 -1660 16 -1712
-3z m1740 -109 c33 -33 34 -36 34 -120 l0 -86 -916 0 -916 0 3 86 c4 84 5 86
41 120 l38 34 841 0 841 0 34 -34z m34 -916 c0 -536 -2 -625 -15 -650 -32 -63
6 -60 -897 -60 -808 0 -824 0 -856 20 -63 39 -62 27 -62 700 l0 610 915 0 915
0 0 -620z"/>
<path d="M171 1688 c-13 -33 4 -60 36 -56 56 7 55 69 -1 76 -20 3 -28 -2 -35
-20z"/>
<path d="M342 1698 c-27 -27 -6 -68 35 -68 28 0 43 28 32 58 -9 24 -47 30 -67
10z"/>
<path d="M510 1695 c-26 -32 13 -81 48 -59 34 22 22 74 -18 74 -10 0 -23 -7
-30 -15z"/>
<path d="M596 1114 c-9 -8 -16 -21 -16 -27 0 -6 53 -65 117 -129 l117 -118
-118 -119 c-122 -124 -131 -140 -88 -169 22 -14 27 -11 162 124 90 88 140 145
140 159 0 22 -266 295 -287 295 -6 0 -19 -7 -27 -16z"/>
<path d="M1012 698 c-16 -16 -15 -43 2 -57 9 -8 82 -11 241 -9 204 3 229 5
239 21 8 12 8 22 0 35 -10 15 -35 17 -240 20 -170 2 -233 -1 -242 -10z"/>
</g>
</svg>
