<?xml version="1.0" encoding="utf-8"?><svg version="1.1" id="Layer_1" xmlns="http://www.w3.org/2000/svg" xmlns:xlink="http://www.w3.org/1999/xlink" x="0px" y="0px" viewBox="0 0 122.88 108.95" style="enable-background:new 0 0 122.88 108.95" xml:space="preserve" fill="#6b7280"><g><path class="st0" d="M23.01,0h76.87c6.33,0,12.08,2.59,16.25,6.76c4.17,4.17,6.76,9.92,6.76,16.25v62.93 c0,6.33-2.59,12.08-6.76,16.25c-4.17,4.17-9.92,6.76-16.25,6.76H23.01c-6.33,0-12.08-2.59-16.25-6.76C2.59,98.02,0,92.27,0,85.94 V23.01c0-6.33,2.59-12.08,6.76-16.25C10.92,2.59,16.68,0,23.01,0L23.01,0z M25.17,33.8h22.65v6.19H33.67v4.61h13.12v5.91H33.67v5.7 h14.58v6.55H25.17V33.8L25.17,33.8z M50.96,56.94l7.54-0.73c0.31,0.94,0.75,1.62,1.31,2.02c0.56,0.4,1.31,0.61,2.24,0.61 c1.02,0,1.81-0.23,2.37-0.69c0.44-0.34,0.66-0.77,0.66-1.28c0-0.58-0.29-1.03-0.86-1.35c-0.41-0.22-1.5-0.5-3.26-0.83 c-2.64-0.49-4.47-0.94-5.5-1.36c-1.03-0.41-1.89-1.12-2.59-2.1c-0.7-0.99-1.05-2.12-1.05-3.39c0-1.38,0.38-2.58,1.13-3.57 c0.76-1,1.8-1.75,3.14-2.25c1.33-0.49,3.12-0.74,5.36-0.74c2.36,0,4.11,0.19,5.23,0.57c1.13,0.38,2.07,0.98,2.82,1.78 c0.75,0.81,1.38,1.89,1.87,3.27l-7.19,0.73c-0.19-0.67-0.5-1.16-0.93-1.48c-0.59-0.42-1.31-0.63-2.16-0.63 c-0.85,0-1.48,0.16-1.87,0.49c-0.39,0.32-0.59,0.71-0.59,1.17c0,0.52,0.25,0.9,0.74,1.17c0.49,0.27,1.58,0.51,3.24,0.71 c2.53,0.3,4.41,0.73,5.64,1.27c1.23,0.54,2.17,1.31,2.82,2.31c0.66,1,0.98,2.1,0.98,3.3c0,1.21-0.34,2.39-1.04,3.54 c-0.69,1.15-1.78,2.06-3.26,2.74c-1.49,0.68-3.51,1.02-6.08,1.02c-3.62,0-6.2-0.55-7.74-1.65C52.39,60.52,51.4,58.96,50.96,56.94 L50.96,56.94z M90.48,54.56l7.23,0.85c-0.4,1.6-1.05,2.98-1.96,4.15c-0.91,1.17-2.07,2.08-3.49,2.72 c-1.41,0.65-3.21,0.97-5.39,0.97c-2.11,0-3.86-0.21-5.27-0.62c-1.4-0.42-2.6-1.09-3.62-2.02c-1.01-0.92-1.8-2.02-2.37-3.27 c-0.57-1.25-0.86-2.91-0.86-4.98c0-2.16,0.35-3.96,1.05-5.39c0.51-1.06,1.21-2,2.1-2.84c0.89-0.84,1.79-1.46,2.73-1.87 c1.49-0.65,3.39-0.97,5.7-0.97c3.25,0,5.71,0.61,7.42,1.83c1.7,1.23,2.89,3.01,3.58,5.37l-7.15,1.01c-0.22-0.9-0.63-1.57-1.22-2.03 c-0.59-0.45-1.39-0.68-2.39-0.68c-1.26,0-2.28,0.48-3.06,1.43c-0.78,0.96-1.17,2.4-1.17,4.34c0,1.73,0.39,3.03,1.16,3.93 c0.77,0.9,1.75,1.34,2.95,1.34c0.99,0,1.84-0.27,2.51-0.8C89.63,56.49,90.14,55.67,90.48,54.56L90.48,54.56z M4.95,77.41 c0.86,3.22,2.57,6.11,4.86,8.41c3.38,3.39,8.05,5.49,13.19,5.49h76.87c0.21,0,0.41,0,0.62-0.01l1.29-0.09 c4.33-0.44,8.24-2.38,11.19-5.29l0.09-0.1c2.3-2.3,4-5.19,4.86-8.41v-54.4c0-4.96-2.03-9.47-5.31-12.75 c-3.27-3.27-7.79-5.31-12.75-5.31H23.01c-4.96,0-9.48,2.03-12.75,5.3c-3.27,3.27-5.3,7.79-5.3,12.75V77.41L4.95,77.41z"/></g></svg>