<!-- Lightning https://iconscout.com/icons/lightning by IconLauk https://iconscout.com/contributors/icon-lauk on IconScout https://iconscout.com" -->
<svg xmlns="http://www.w3.org/2000/svg" enable-background="new 0 0 32 32" viewBox="0 0 32 32" id="lightning"><path fill="#ff7c00" d="M26.9,10.5C26.7,10.2,26.4,10,26,10h-9V2c0-0.4-0.3-0.8-0.7-1c-0.4-0.1-0.9,0-1.1,0.4l-10,14c-0.2,0.3-0.3,0.7-0.1,1   C5.3,16.8,5.6,17,6,17h8.8L13,29.9c-0.1,0.5,0.2,0.9,0.6,1.1c0.1,0,0.2,0.1,0.3,0.1c0.3,0,0.7-0.2,0.8-0.5l12-19   C27,11.2,27,10.8,26.9,10.5z"/></svg>