<svg xmlns="http://www.w3.org/2000/svg" width="482.122" height="170.306" viewBox="0 0 127.561 45.06"><path style="fill:#f1bc8a;fill-opacity:1;stroke-width:.0943025" transform="matrix(-.8768 -.48087 0 1 -16.026 -117.419)" d="M-65.857 110.343h20.722v5.806h-20.722zM-65.857 100.267h20.722v5.806h-20.722z"/><path style="fill:#eba059;fill-opacity:1;stroke-width:.0942989" transform="matrix(.87677 -.4809 0 1 -16.026 -117.419)" d="M45.06 163.607h20.798v5.843H45.06z"/><path style="fill:#f1bc8a;fill-opacity:1;stroke-width:.0943025" transform="matrix(-.8768 -.48087 0 1 -16.026 -117.419)" d="M-45.06 120.27h20.8v5.843h-20.8z"/><path style="fill:#eba059;fill-opacity:1;stroke-width:.0944389" transform="matrix(.87755 -.47948 0 1 -16.026 -117.419)" d="M24.237 143.556h20.86v5.843h-20.86z"/><path style="fill:#eba059;fill-opacity:1;stroke-width:.0942989" transform="matrix(.87677 -.4809 0 1 -16.026 -117.419)" d="M45.06 173.683h20.798v5.843H45.06z"/><path style="fill:#f1bc8a;fill-opacity:1;stroke-width:.0943025" transform="matrix(-.8768 -.48087 0 1 -16.026 -117.419)" d="M-45.06 130.346h20.8v5.843h-20.8z"/><path style="fill:#eba059;fill-opacity:1;stroke-width:.0944389" transform="matrix(.87755 -.47948 0 1 -16.026 -117.419)" d="M24.237 153.633h20.86v5.843h-20.86z"/></svg>