<?xml version="1.0" encoding="UTF-8"?> <svg xmlns="http://www.w3.org/2000/svg" viewBox="0 0 480 220" width="480" height="220"><title>480x220-Cisco-Partner-Cameo-Global</title><rect width="480" height="220" style="fill: none"></rect><g><path d="M364.54,150.09c0,15.51-12.08,27.3-27.91,27.29S308.79,165.55,308.8,150s12.11-27.33,27.91-27.3S364.56,134.59,364.54,150.09Zm-14.12,0A13.76,13.76,0,1,0,336.58,164a13.58,13.58,0,0,0,13.84-13.88Z" style="fill: #059fd8"></path><path d="M205.32,169.92c0-1.6.06-3.2,0-4.77-.06-1.1.18-1.34,1.29-1A40.73,40.73,0,0,0,220,165.67a12.86,12.86,0,0,0,5-1.16c3.2-1.58,3.48-5,.61-7.08a17.25,17.25,0,0,0-5.23-2.26,32.72,32.72,0,0,1-9.39-4.29c-8.58-6.07-7.37-20,1.5-25.13a24.25,24.25,0,0,1,12.59-3,59.31,59.31,0,0,1,11.72,1.41c.8.17,1.08.47,1.06,1.33-.06,3.06-.05,6.13,0,9.2,0,.8-.16,1-1,.78a36.32,36.32,0,0,0-11-1.31,10.47,10.47,0,0,0-4.8,1.29,3.38,3.38,0,0,0-.52,5.78,11.48,11.48,0,0,0,4.15,2,54.68,54.68,0,0,1,7.84,2.82c5.6,2.87,9,7.25,9,13.68,0,6.71-2.92,11.77-9,14.87a27.14,27.14,0,0,1-11.5,2.76,74.33,74.33,0,0,1-14.74-1.2c-.8-.12-1-.42-1-1.2C205.36,173.27,205.32,171.59,205.32,169.92Z" style="fill: #059fd8"></path><path d="M294.74,138.75A24.67,24.67,0,0,0,282.47,136a14,14,0,0,0-.65,28,23.78,23.78,0,0,0,12.06-2.24,1.15,1.15,0,0,1,.86-.24v11.06c0,3,0,3-3,3.67-7.4,1.71-14.72,1.7-21.72-1.57-9.8-4.58-15-12.42-15.5-23.2-.46-9.53,2.88-17.49,10.63-23.3,5.46-4.1,11.76-5.64,18.52-5.46a40.25,40.25,0,0,1,10.11,1.6c.49.14.95.21.95,1C294.72,129.71,294.74,134.15,294.74,138.75Z" style="fill: #059fd8"></path><path d="M155.65,138.75A24.45,24.45,0,0,0,143.37,136a14,14,0,0,0-.6,28,24,24,0,0,0,12.7-2.57c.31.34.17.71.17,1,0,4,0,7.89,0,11.83,0,.83-.17,1.24-1.07,1.49-8,2.12-15.92,2.45-23.6-1.1-10-4.62-15.08-12.62-15.53-23.54-.37-8.78,2.61-16.25,9.38-22a27.24,27.24,0,0,1,15.1-6.25,38.57,38.57,0,0,1,14.65,1.37c.76.21,1.08.49,1.07,1.36C155.62,130,155.65,134.25,155.65,138.75Z" style="fill: #059fd8"></path><path d="M174,79.4v34.4c0,3.55-2.06,6.27-5.2,6.93a6.64,6.64,0,0,1-8.06-6.32V44.89c0-2.66.87-4.85,3.2-6.27a6.27,6.27,0,0,1,6.69-.13,6.49,6.49,0,0,1,3.41,6q0,14.58,0,29.15C174,75.59,174,77.5,174,79.4Z" style="fill: #079fd9"></path><path d="M306.12,79.25V44.6c0-3.63,2.09-6.25,5.4-6.84A6.58,6.58,0,0,1,319.19,43a6.8,6.8,0,0,1,.11,1v69.54a7.73,7.73,0,0,1-1,4.23,6.62,6.62,0,0,1-7.37,2.87,6.52,6.52,0,0,1-4.8-6.4c0-9.56,0-19.11,0-28.67C306.12,83.47,306.12,81.36,306.12,79.25Z" style="fill: #059fd8"></path><path d="M187.34,150q0,12.6,0,25.2c0,1-.29,1.25-1.26,1.23-3.7-.05-7.41,0-11.11,0-.77,0-1-.18-1-1q0-25.4,0-50.78c0-.83.22-1.07,1.06-1.07,3.67,0,7.33.06,11,0,1,0,1.33.24,1.33,1.31C187.32,133.29,187.34,141.65,187.34,150Z" style="fill: #079fd9"></path><path d="M355.64,85.15c0,5.38,0,10.75,0,16.12a6.62,6.62,0,0,1-13,1.74,7.13,7.13,0,0,1-.31-2q0-15.89,0-31.77a6.31,6.31,0,0,1,3.83-6.11,6.64,6.64,0,0,1,9.46,6.13V85.15Z" style="fill: #079fd9"></path><path d="M124.36,85.07c0-5.29,0-10.59,0-15.88a6.62,6.62,0,0,1,12.18-3.66,6.77,6.77,0,0,1,1.08,3.74c0,10.55,0,21.1,0,31.66a6.63,6.63,0,1,1-13.26-.08C124.34,95.59,124.36,90.33,124.36,85.07Z" style="fill: #079fd9"></path><path d="M197,85.13c0-5.3,0-10.6,0-15.89A6.63,6.63,0,0,1,207.82,64a6.23,6.23,0,0,1,2.46,5.09q0,16,0,32a6.6,6.6,0,0,1-6.54,6.66h-.06A6.67,6.67,0,0,1,197,100.9C197,95.64,197,90.38,197,85.13Z" style="fill: #079fd9"></path><path d="M283,85.2c0,5.25,0,10.51,0,15.76a6.44,6.44,0,0,1-3.6,6,6.22,6.22,0,0,1-6.67-.4c-2.18-1.45-3-3.6-3-6.17,0-9,0-18,0-27,0-1.51-.06-3,0-4.53a6.59,6.59,0,1,1,13.18.41C283,74.61,283,79.91,283,85.2Z" style="fill: #059fd8"></path><path d="M88,94.22V87.54a6.63,6.63,0,1,1,13.26-.15q.1,6.8,0,13.6a6.64,6.64,0,0,1-6.61,6.76A6.71,6.71,0,0,1,88,100.91C88,98.68,88,96.45,88,94.22Z" style="fill: #079fd9"></path><path d="M246.6,94.24c0,2.27.05,4.54,0,6.8a6.6,6.6,0,0,1-12.91,2,7.72,7.72,0,0,1-.31-2.24c0-4.46,0-8.92,0-13.38a6.6,6.6,0,0,1,12.44-3.2,7.24,7.24,0,0,1,.78,3.45C246.61,89.86,246.6,92.05,246.6,94.24Z" style="fill: #079fd9"></path><path d="M392,94.27c0,2.31.06,4.62,0,6.93A6.59,6.59,0,0,1,379,102.91a8.53,8.53,0,0,1-.27-2.24c0-4.3,0-8.61,0-12.91,0-3.75,2.22-6.45,5.58-7a6.53,6.53,0,0,1,7.59,6.55C392,89.65,392,92,392,94.27Z" style="fill: #059fd8"></path></g></svg> 