<?xml version="1.0" encoding="UTF-8"?>
<svg width="95px" height="32px" viewBox="0 0 95 32" version="1.1" xmlns="http://www.w3.org/2000/svg" xmlns:xlink="http://www.w3.org/1999/xlink">
    <!-- Generator: Sketch 54.1 (76490) - https://sketchapp.com -->
    <title>UiPath_Logo_full</title>
    <desc>Created with Sketch.</desc>
    <g id="Page-1" stroke="none" stroke-width="1" fill="none" fill-rule="evenodd">
        <path d="M0,0 L32,0 L32,32 L0,32 L0,0 Z M28.672,28.672 L28.672,3.328 L3.328,3.328 L3.328,28.672 L28.672,28.672 L28.672,28.672 Z M6.208,8.256 L6.208,17.92 C6.208,22.336 8.64,24.96 12.736,24.96 C16.96,24.96 19.392,22.336 19.392,17.92 L19.392,8.256 L16.064,8.256 L16.064,17.92 C16.064,20.416 14.976,21.824 12.8,21.824 C10.496,21.824 9.472,20.352 9.472,17.92 L9.472,8.256 L6.208,8.256 Z M23.68,10.24 C24.832,10.24 25.728,9.408 25.728,8.256 C25.728,7.04 24.896,6.208 23.68,6.208 C22.528,6.208 21.632,7.04 21.632,8.256 C21.632,9.408 22.528,10.24 23.68,10.24 Z M22.016,11.776 L22.016,24.768 L25.344,24.768 L25.344,11.776 L22.016,11.776 Z M41.856,19.456 C45.44,19.456 47.808,17.344 47.808,13.824 C47.808,10.432 45.504,8.256 41.856,8.256 L35.584,8.256 L35.584,24.832 L38.912,24.832 L38.912,19.52 L41.856,19.52 L41.856,19.456 Z M41.472,16.832 L38.848,16.832 L38.848,10.944 L41.472,10.944 C43.392,10.944 44.416,12.032 44.416,13.824 C44.416,15.744 43.392,16.832 41.472,16.832 Z M48.896,18.304 C48.896,22.208 51.392,24.96 54.912,24.96 C57.024,24.96 58.368,24.192 59.136,22.976 L59.136,24.832 L62.464,24.832 L62.464,11.776 L59.136,11.776 L59.136,13.824 C58.304,12.48 56.96,11.648 54.912,11.648 C51.328,11.648 48.896,14.464 48.896,18.304 Z M59.136,18.304 C59.136,20.544 57.728,22.016 55.68,22.016 C53.44,22.016 52.288,20.416 52.288,18.304 C52.288,16 53.568,14.528 55.68,14.528 C57.792,14.528 59.136,16.064 59.136,18.304 Z M70.784,21.952 C69.504,21.952 69.184,21.376 69.184,20.224 L69.184,14.592 L72.064,14.592 L72.064,11.776 L69.184,11.776 L69.184,8.192 L65.856,8.192 L65.856,11.776 L64.32,11.776 L64.32,14.592 L65.856,14.592 L65.856,20.224 C65.856,23.296 67.2,24.768 70.4,24.768 L72.128,24.768 L72.128,21.952 L70.784,21.952 Z M77.248,13.632 L77.248,7.488 L73.92,7.488 L73.92,24.832 L77.248,24.832 L77.248,17.92 C77.248,15.68 78.4,14.336 80.384,14.336 C82.304,14.336 83.328,15.616 83.328,17.6 L83.328,24.768 L86.656,24.768 L86.656,17.28 C86.656,13.888 84.224,11.648 81.152,11.648 C79.232,11.648 78.016,12.352 77.248,13.632 Z M86.4,7.424 L86.4,7.936 L87.488,7.936 L87.488,11.264 L88.128,11.264 L88.128,7.936 L89.152,7.936 L89.152,7.424 C89.152,7.424 86.4,7.424 86.4,7.424 Z M93.312,7.424 L91.968,10.496 L90.688,7.424 L89.92,7.424 L89.92,11.264 L90.496,11.264 L90.496,8.32 L91.776,11.264 L92.224,11.264 L93.44,8.32 L93.44,11.264 L94.016,11.264 L94.016,7.424 L93.312,7.424 L93.312,7.424 Z" id="UiPath_Logo_full" fill="#FA4616" fill-rule="nonzero"></path>
    </g>
</svg>