<?xml version="1.0" encoding="utf-8"?>
<!-- Generator: Adobe Illustrator 23.0.4, SVG Export Plug-In . SVG Version: 6.00 Build 0)  -->
<svg version="1.1" id="Layer_1" xmlns="http://www.w3.org/2000/svg" xmlns:xlink="http://www.w3.org/1999/xlink" x="0px" y="0px"
	 viewBox="0 0 775.7 166.8" style="enable-background:new 0 0 775.7 166.8;" xml:space="preserve">
<style type="text/css">
	.st0{fill:#74797D;}
	.st1{fill:#EC0000;}
</style>
<title>UnifyID</title>
<path class="st0" d="M211,51.9h14.9v39.9c0,6.3,0.2,10.4,0.6,12.3c0.6,2.9,2.2,5.5,4.5,7.3c2.4,1.8,5.7,2.7,9.8,2.7
	c4.2,0,7.3-0.9,9.5-2.6c2-1.5,3.4-3.8,3.9-6.3c0.5-4.1,0.7-8.3,0.6-12.5V51.9h14.9v38.7c0,8.8-0.4,15.1-1.2,18.7
	c-0.7,3.4-2.2,6.6-4.4,9.2c-2.4,2.7-5.3,4.7-8.6,6c-3.6,1.5-8.4,2.2-14.2,2.2c-7,0-12.3-0.8-15.9-2.5c-3.3-1.4-6.3-3.6-8.6-6.3
	c-2-2.3-3.4-5.1-4.2-8.1c-1-4.2-1.5-10.5-1.5-18.7L211,51.9z"/>
<path class="st0" d="M312,125.5V51.9h14.4l30.1,49.1V51.9h13.8v73.6h-14.9l-29.6-47.9v47.9L312,125.5z"/>
<path class="st0" d="M412.8,125.5V51.9h14.8v73.6H412.8z"/>
<path class="st0" d="M469.5,125.5V51.9H520v12.5h-35.6v17.4h30.7v12.5h-30.7v31.2H469.5z"/>
<path class="st0" d="M580.7,125.5v-31l-26.9-42.6h17.4L588.4,81l17-29.1h17l-27,42.7v30.8L580.7,125.5z"/>
<path class="st1" d="M657.3,125.5V51.9h14.9v73.6H657.3z"/>
<path class="st1" d="M714.1,51.9h27.1c6.1,0,10.8,0.5,14,1.4c4.2,1.3,8,3.6,11.1,6.8c3.2,3.4,5.6,7.5,7,11.9
	c1.8,5.6,2.6,11.5,2.5,17.3c0.1,5.3-0.6,10.6-2.2,15.7c-1.6,4.9-4.3,9.3-7.9,13c-3,2.8-6.5,4.8-10.4,5.9c-4.3,1.2-8.7,1.7-13.1,1.5
	h-28V51.9z M728.9,64.4v48.7H740c3,0.1,6-0.1,9-0.7c2.2-0.5,4.3-1.6,6-3c1.6-1.4,2.9-3.8,3.9-7.1c1.1-4.4,1.7-8.9,1.5-13.5
	c0-5.7-0.5-10.1-1.5-13.1c-0.8-2.7-2.2-5.1-4.2-7.1c-1.9-1.8-4.3-3-6.9-3.5c-2.1-0.5-6.1-0.7-12.2-0.7H728.9z"/>
<path class="st1" d="M83.4,166.8C37.3,166.8,0,129.5,0,83.4S37.3,0,83.4,0c46,0,83.4,37.4,83.4,83.4
	C166.7,129.4,129.4,166.7,83.4,166.8z M83.4,17.6C47.2,17.7,18,47,18,83.2s29.4,65.4,65.6,65.4S149,119.2,148.9,83
	c0-26.9-16.6-51.1-41.7-60.9C99.7,19.1,91.6,17.6,83.4,17.6z"/>
<path class="st0" d="M64.2,68.4c0.3-10.6,9.2-18.9,19.8-18.6c10.3,0.3,18.5,8.8,18.6,19.1c0,1.1-0.1,2.2-0.3,3.3
	c-0.9,5.4-4.1,10.1-8.7,13c-1.9,1.2-2.8,3.4-2.4,5.5l5.7,27.1c0.3,1.4-0.6,2.8-2,3.1c-0.2,0-0.4,0.1-0.5,0.1h-22
	c-1.5,0-2.6-1.2-2.6-2.6c0-0.2,0-0.4,0.1-0.5l5.7-27.1c0.5-2.2-0.5-4.4-2.3-5.5c-4.6-2.9-7.8-7.6-8.7-13
	C64.3,70.9,64.2,69.7,64.2,68.4L64.2,68.4z"/>
</svg>
