<?xml version="1.0" encoding="UTF-8"?>
<svg version="2.0" viewBox="0 0 44 51" xmlns="http://www.w3.org/2000/svg" xmlns:figma="http://www.figma.com/figma/ns" xmlns:xlink="http://www.w3.org/1999/xlink">
<title>Group.svg</title>
<desc>Created using Figma 0.90</desc>
<g transform="translate(-1640 -2453)" figma:type="canvas">
<g style="mix-blend-mode:normal" figma:type="group">
<g style="mix-blend-mode:normal" figma:type="group">
<g style="mix-blend-mode:normal" figma:type="group">
<g style="mix-blend-mode:normal" figma:type="group">
<g style="mix-blend-mode:normal" figma:type="group">
<g style="mix-blend-mode:normal" figma:type="vector">
<use transform="translate(1640.5 2474.4)" fill="#4E4E4E" style="mix-blend-mode:normal" xlink:href="#l"/>
</g>
</g>
<g style="mix-blend-mode:normal" figma:type="group">
<g style="mix-blend-mode:normal" figma:type="vector">
<use transform="translate(1645.7 2474.4)" fill="#4E4E4E" style="mix-blend-mode:normal" xlink:href="#i"/>
</g>
</g>
<g style="mix-blend-mode:normal" figma:type="group">
<g style="mix-blend-mode:normal" figma:type="vector">
<use transform="translate(1653.4 2474.3)" fill="#4E4E4E" style="mix-blend-mode:normal" xlink:href="#h"/>
</g>
</g>
<g style="mix-blend-mode:normal" figma:type="group">
<g style="mix-blend-mode:normal" figma:type="vector">
<use transform="translate(1660.4 2474.4)" fill="#4E4E4E" style="mix-blend-mode:normal" xlink:href="#g"/>
</g>
</g>
<g style="mix-blend-mode:normal" figma:type="group">
<g style="mix-blend-mode:normal" figma:type="vector">
<use transform="translate(1667.6 2472.5)" fill="#4E4E4E" style="mix-blend-mode:normal" xlink:href="#f"/>
</g>
</g>
<g style="mix-blend-mode:normal" figma:type="group">
<g style="mix-blend-mode:normal" figma:type="vector">
<use transform="translate(1672.5 2474.3)" fill="#4E4E4E" style="mix-blend-mode:normal" xlink:href="#e"/>
</g>
</g>
<g style="mix-blend-mode:normal" figma:type="group">
<g style="mix-blend-mode:normal" figma:type="vector">
<use transform="translate(1680 2474.2)" fill="#4E4E4E" style="mix-blend-mode:normal" xlink:href="#d"/>
</g>
</g>
</g>
</g>
<g style="mix-blend-mode:normal" figma:type="group">
<g style="mix-blend-mode:normal" figma:type="group">
<g style="mix-blend-mode:normal" figma:type="vector">
<use transform="translate(1673.5 2453.7)" fill="#767677" style="mix-blend-mode:normal" xlink:href="#c"/>
</g>
</g>
<g style="mix-blend-mode:normal" figma:type="group">
<g style="mix-blend-mode:normal" figma:type="vector">
<use transform="translate(1643.2 2484.3)" fill="#F37726" style="mix-blend-mode:normal" xlink:href="#b"/>
</g>
</g>
<g style="mix-blend-mode:normal" figma:type="group">
<g style="mix-blend-mode:normal" figma:type="vector">
<use transform="translate(1643.2 2457.9)" fill="#F37726" style="mix-blend-mode:normal" xlink:href="#a"/>
</g>
</g>
<g style="mix-blend-mode:normal" figma:type="group">
<g style="mix-blend-mode:normal" figma:type="vector">
<use transform="translate(1643.3 2496.1)" fill="#9E9E9E" style="mix-blend-mode:normal" xlink:href="#k"/>
</g>
</g>
<g style="mix-blend-mode:normal" figma:type="group">
<g style="mix-blend-mode:normal" figma:type="vector">
<use transform="translate(1641.9 2458.4)" fill="#616262" style="mix-blend-mode:normal" xlink:href="#j"/>
</g>
</g>
</g>
</g>
</g>
</g>
<defs>
<path id="l" d="m1.745 5.4753c0 1.558-0.12464 2.0655-0.44515 2.4394-0.35671 0.32121-0.81981 0.49884-1.2998 0.49857l0.12464 0.89029c0.7442 0.01006 1.4663-0.25282 2.0299-0.73894 0.30323-0.36979 0.52888-0.79685 0.66348-1.2557 0.13461-0.45888 0.17541-0.94017 0.11998-1.4152v-5.8938h-1.193v5.4397 0.03561z"/>
<path id="i" d="m5.502 4.7631c0 0.66772 0 1.2642 0.05341 1.7806h-1.0594l-0.07122-1.0594c-0.2216 0.37486-0.53851 0.68435-0.9185 0.89702-0.38 0.21267-0.80953 0.32094-1.2449 0.31378-1.0327 0-2.2614-0.56088-2.2614-2.849v-3.8016h1.193v3.5612c0 1.2375 0.38283 2.0655 1.4601 2.0655 0.22163 0.00239 0.4415-0.03951 0.64673-0.12323s0.39167-0.20757 0.5484-0.3643c0.15672-0.15672 0.28058-0.34317 0.3643-0.54839 0.08371-0.20523 0.12561-0.42511 0.12323-0.64674v-3.9885h1.193v4.7275l-0.0267 0.03561z"/>
<path id="h" d="m0.053418 2.2726c0-0.82798 0-1.5046-0.053418-2.1189h1.0684l0.05341 1.1129c0.23803-0.40206 0.5807-0.73201 0.99148-0.95465 0.41079-0.22264 0.87429-0.32963 1.3411-0.30957 1.5847 0 2.7777 1.3265 2.7777 3.303 0 2.3326-1.4334 3.49-2.9825 3.49-0.39649 0.01769-0.79084-0.06725-1.1449-0.24661-0.35405-0.17937-0.65581-0.44708-0.87608-0.77723v3.5612h-1.1752v-7.0333-0.02671zm1.1752 1.7361c0.00323 0.16154 0.02111 0.32245 0.05342 0.48076 0.10101 0.39531 0.33096 0.74565 0.65345 0.99558 0.3225 0.24994 0.71913 0.3852 1.1271 0.38438 1.2553 0 1.9943-1.0238 1.9943-2.5106 0-1.2998-0.69443-2.4127-1.9498-2.4127-0.49678 0.040681-0.96166 0.26116-1.3075 0.6201s-0.54886 0.8317-0.57104 1.3296v1.1129z"/>
<path id="g" d="m1.3176 0.017806l1.4334 3.8372c0.15135 0.42734 0.3116 0.94371 0.41844 1.3265 0.12464-0.39173 0.25818-0.8903 0.41844-1.3532l1.2998-3.8105h1.2553l-1.7806 4.6295c-0.8903 2.2257-1.4334 3.3742-2.2525 4.0687-0.41255 0.37682-0.91552 0.64057-1.4601 0.76565l-0.2938-0.99713c0.38077-0.12511 0.73426-0.32149 1.0417-0.57869 0.43433-0.35396 0.77901-0.8054 1.006-1.3176 0.04859-0.08871 0.08171-0.18506 0.09793-0.2849-0.01012-0.10744-0.03716-0.2126-0.08012-0.3116l-2.4216-5.9917h1.2998l0.01781 0.017806z"/>
<path id="f" d="m2.1901 0v1.8696h1.7094v0.8903h-1.7094v3.5078c0 0.80127 0.23148 1.2642 0.8903 1.2642 0.23399 0.00383 0.46746-0.02311 0.69443-0.08012l0.05342 0.89029c-0.34034 0.11791-0.69947 0.17223-1.0595 0.16026-0.2384 0.01492-0.47721-0.02191-0.70004-0.10797s-0.4244-0.21931-0.59089-0.3906c-0.36264-0.48504-0.52806-1.0895-0.46295-1.6916v-3.5612h-1.0149v-0.8903h1.0327v-1.5847l1.1574-0.27599z"/>
<path id="e" d="m1.1772 3.579c-0.02416 0.30194 0.01752 0.60552 0.12217 0.88977s0.26977 0.54238 0.48396 0.75656c0.21418 0.21419 0.47231 0.37931 0.75656 0.48396s0.58783 0.14633 0.88977 0.12217c0.61071 0.01366 1.2174-0.10162 1.7806-0.33832l0.20477 0.8903c-0.69105 0.28466-1.4341 0.42115-2.1812 0.40063-0.43554 0.02982-0.87237-0.03492-1.2805-0.18979-0.40817-0.15486-0.778-0.39618-1.0841-0.70739-0.30614-0.31122-0.54135-0.68498-0.68948-1.0956-0.14813-0.41066-0.20569-0.84849-0.16872-1.2835 0-1.9586 1.1663-3.5078 3.0715-3.5078 2.1367 0 2.6709 1.8696 2.6709 3.0626 0.01142 0.18382 0.01142 0.36817 0 0.55199h-4.6028l0.0267-0.03562zm3.49-0.89029c0.03436-0.23803 0.0173-0.48065-0.05004-0.71152-0.06733-0.23087-0.18337-0.44463-0.34029-0.62687-0.15693-0.18223-0.35109-0.32871-0.56941-0.42957-0.21832-0.10085-0.45573-0.15374-0.69621-0.15509-0.48917 0.035408-0.94747 0.25222-1.2851 0.60796-0.33762 0.35573-0.53021 0.82473-0.54002 1.3151h3.4811z"/>
<path id="d" d="m0.053418 2.1923c0-0.76565 0-1.4245-0.053418-2.0299h1.0684v1.2731h0.05341c0.11214-0.39294 0.34383-0.74122 0.66291-0.99648 0.31908-0.25527 0.70972-0.40485 1.1177-0.428 0.11229-0.014738 0.22602-0.014738 0.33831 0v1.1129c-0.13606-0.01576-0.27348-0.01576-0.40954 0-0.40414 0.01565-0.78877 0.17789-1.082 0.45642-0.29327 0.27852-0.47512 0.65427-0.51159 1.0571-0.03329 0.18217-0.05116 0.36682-0.05341 0.55198v3.4633h-1.1752v-4.4515l0.044515-0.0089z"/>
<path id="c" d="m6.0306 2.8356c0.03656 0.59811-0.10574 1.1936-0.40879 1.7105-0.30305 0.51695-0.75311 0.93198-1.2929 1.1922-0.53976 0.26025-1.1448 0.35394-1.738 0.26914-0.59319-0.08481-1.1477-0.34427-1.5929-0.74534-0.44521-0.40106-0.76096-0.92558-0.90702-1.5067-0.14606-0.58115-0.11582-1.1926 0.086866-1.7565 0.20269-0.5639 0.56864-1.0547 1.0513-1.4099 0.48261-0.35518 1.06-0.55867 1.6587-0.58453 0.39251-0.021599 0.78542 0.034609 1.1561 0.16539 0.37071 0.13078 0.71191 0.33356 1.004 0.59666 0.29206 0.26311 0.52924 0.58136 0.69788 0.93645s0.26542 0.74002 0.28477 1.1326z"/>
<path id="b" d="m18.696 7.1224c-8.0126 0-15.055-2.8757-18.696-7.1224 1.4128 3.8204 3.9622 7.1163 7.3048 9.444 3.3426 2.3278 7.3182 3.5756 11.391 3.5756 4.0733 0 8.0488-1.2478 11.392-3.5756 3.3426-2.3277 5.8919-5.6236 7.3048-9.444-3.6324 4.2467-10.648 7.1224-18.696 7.1224z"/>
<path id="a" d="m18.696 5.8972c8.0127 0 15.055 2.8757 18.696 7.1224-1.4129-3.8204-3.9622-7.1163-7.3048-9.444-3.3427-2.3277-7.3182-3.5756-11.392-3.5756-4.0732 4.0486e-13 -8.0488 1.2478-11.391 3.5756-3.3426 2.3277-5.892 5.6236-7.3048 9.444 3.6413-4.2556 10.648-7.1224 18.696-7.1224z"/>
<path id="k" d="m7.5958 3.5666c0.047 0.75336-0.13134 1.5037-0.51229 2.1553-0.38096 0.65164-0.94728 1.1751-1.6268 1.5038s-1.4415 0.44753-2.1888 0.34155c-0.74735-0.10599-1.4462-0.43205-2.0076-0.93665-0.56137-0.5046-0.95982-1.1649-1.1446-1.8968-0.18476-0.73187-0.14746-1.5022 0.10714-2.2128 0.2546-0.71059 0.71497-1.3293 1.3225-1.7773 0.6075-0.44801 1.3346-0.70503 2.0887-0.73831 0.49399-0.026423 0.98835 0.044741 1.4548 0.20943 0.46648 0.16469 0.89595 0.41967 1.2639 0.75038 0.36791 0.33071 0.66707 0.73066 0.88036 1.177 0.2133 0.44635 0.33657 0.93036 0.36276 1.4244z"/>
<path id="j" d="m2.2506 4.3794c-0.43175 0.01192-0.85739-0.10408-1.2234-0.33341-0.366-0.22934-0.65601-0.56178-0.83358-0.9555-0.17756-0.39373-0.23475-0.83117-0.16436-1.2573s0.26521-0.82196 0.55995-1.1377c0.29475-0.31571 0.67627-0.53723 1.0966-0.63668 0.4203-0.099458 0.86063-0.07242 1.2656 0.077714 0.40498 0.15014 0.75653 0.41666 1.0104 0.76606 0.25391 0.3494 0.39884 0.76608 0.41656 1.1976 0.01687 0.58353-0.19711 1.1502-0.59549 1.5769-0.39838 0.42672-0.94901 0.67908-1.5323 0.70228z"/>
</defs>
</svg>
