<svg class="mr-1 text-gray-400" xmlns="http://www.w3.org/2000/svg" aria-hidden="true" viewBox="0 0 32 32"><path d="M7.81 18.746v5.445h5.444v-5.445H7.809Z" fill="#FF3270"/><path d="M18.746 18.746v5.445h5.444v-5.445h-5.444Z" fill="#861FFF"/><path d="M7.81 7.81v5.444h5.444V7.81H7.809Z" fill="#097EFF"/><path fill-rule="evenodd" clip-rule="evenodd" d="M4 6.418A2.418 2.418 0 0 1 6.418 4h8.228c1.117 0 2.057.757 2.334 1.786a6.532 6.532 0 0 1 9.234 9.234A2.419 2.419 0 0 1 28 17.355v8.227A2.418 2.418 0 0 1 25.582 28H6.417A2.418 2.418 0 0 1 4 25.582V6.417ZM7.81 7.81v5.444h5.444V7.81H7.81Zm0 16.38v-5.444h5.444v5.445H7.81Zm10.936 0v-5.444h5.445v5.445h-5.445Zm0-13.658a2.722 2.722 0 1 1 5.445 0 2.722 2.722 0 0 1-5.445 0Z"/><path d="M21.468 7.81a2.722 2.722 0 1 0 0 5.444 2.722 2.722 0 0 0 0-5.444Z" fill="#FFD702"/></svg>