<?xml version="1.0" encoding="UTF-8" standalone="no"?>
<svg
   width="453.2193"
   height="87.671417"
   viewBox="0 0 453.2193 87.671417"
   version="1.1"
   id="svg47"
   sodipodi:docname="huggingface.svg"
   inkscape:version="1.1 (c68e22c387, 2021-05-23)"
   xmlns:inkscape="http://www.inkscape.org/namespaces/inkscape"
   xmlns:sodipodi="http://sodipodi.sourceforge.net/DTD/sodipodi-0.dtd"
   xmlns:xlink="http://www.w3.org/1999/xlink"
   xmlns="http://www.w3.org/2000/svg"
   xmlns:svg="http://www.w3.org/2000/svg">
  <sodipodi:namedview
     id="namedview49"
     pagecolor="#ffffff"
     bordercolor="#666666"
     borderopacity="1.0"
     inkscape:pageshadow="2"
     inkscape:pageopacity="0.0"
     inkscape:pagecheckerboard="0"
     showgrid="false"
     inkscape:zoom="2.1392045"
     inkscape:cx="285.62019"
     inkscape:cy="71.755644"
     inkscape:window-width="2560"
     inkscape:window-height="1001"
     inkscape:window-x="-9"
     inkscape:window-y="-9"
     inkscape:window-maximized="1"
     inkscape:current-layer="svg47" />
  <!-- Generator: Sketch 43.2 (39069) - http://www.bohemiancoding.com/sketch -->
  <title
     id="title2">icon</title>
  <desc
     id="desc4">Created with Sketch.</desc>
  <defs
     id="defs7">
    <path
       d="m 13,14.789019 c 9.82848,0 13,-8.76296 13,-13.2628439 C 26,-0.81248411 24.427913,-0.0763571 21.909948,1.1702099 19.583022,2.3221996 16.4483,3.9101131 13,3.9101131 5.8202982,3.9101131 0,-2.9737088 0,1.5261751 0,6.026059 3.1715199,14.789019 13,14.789019 Z"
       id="path-1" />
  </defs>
  <g
     id="Page-1"
     stroke="none"
     stroke-width="1"
     fill="none"
     fill-rule="evenodd">
    <g
       id="g44">
      <g
         id="icon">
        <g
           id="icon_desktop">
          <g
             id="Group-2">
            <g
               id="Group">
              <path
                 d="m 93.79304,70.08 c 0.75,2.16 0.57,4.46 -0.43,6.46 -0.72,1.46 -1.75,2.59 -3.01,3.6 -1.52,1.2 -3.41,2.22 -5.69,3.2 -2.72,1.16 -6.04,2.25 -7.56,2.65 -3.89,1.01 -7.63,1.65 -11.42,1.68 -5.42,0.05 -10.09,-1.23 -13.41,-4.5 -1.72,0.21 -3.46,0.33 -5.21,0.33 -1.66,0 -3.3,-0.1 -4.93,-0.3 -3.33,3.25 -7.98,4.52 -13.38,4.47 -3.79,-0.03 -7.53,-0.67 -11.43,-1.68 -1.51,-0.4 -4.83,-1.49 -7.5499998,-2.65 -2.28,-0.98 -4.17,-2 -5.68,-3.2 -1.27,-1.01 -2.3,-2.14 -3.02,-3.6 -0.99000001,-2 -1.18000001,-4.3 -0.42000001,-6.46 -0.7,-1.65 -0.88,-3.54 -0.33,-5.63 0.25,-0.95 0.66,-1.83 1.18000001,-2.61 -0.11,-0.41 -0.2,-0.83 -0.26,-1.29 -0.38000001,-2.74 0.57,-5.24 2.36,-7.18 0.88,-0.97 1.83,-1.64 2.82,-2.07 -0.73,-3.1 -1.11,-6.29 -1.11,-9.55 C 5.3130402,18.69 24.00304,0 47.06304,0 c 7.92,0 15.33,2.2 21.65,6.04 1.14,0.7 2.26,1.45 3.33,2.25 0.53,0.4 1.06,0.81 1.57,1.24 0.52,0.42 1.03,0.86 1.52,1.31 1.48,1.35 2.87,2.8 4.14,4.35 0.43,0.51 0.84,1.04 1.24,1.58 0.81,1.07 1.56,2.18 2.25,3.33 1.05,1.72 1.97,3.52 2.77,5.39 0.53,1.25 0.99,2.53 1.4,3.84 0.61,1.96 1.08,3.98 1.4,6.06 0.1,0.69 0.19,1.39 0.26,2.09 0.14,1.4 0.22,2.82 0.22,4.27 0,3.22 -0.38,6.38 -1.09,9.43 1.1,0.43 2.14,1.13 3.11,2.19 1.79,1.94 2.74,4.45 2.36,7.19 -0.06,0.45 -0.15,0.87 -0.26,1.28 0.52,0.78 0.93,1.66 1.18,2.61 0.55,2.09 0.37,3.98 -0.32,5.63"
                 id="Fill-1"
                 fill="#ffffff"
                 fill-rule="nonzero" />
              <circle
                 id="Oval"
                 fill="#ffd21e"
                 fill-rule="nonzero"
                 cx="46.75"
                 cy="41.75"
                 r="34.75" />
              <path
                 d="M 81.5,41.75 C 81.5,22.558105 65.941895,7 46.75,7 27.558105,7 12,22.558105 12,41.75 12,60.941895 27.558105,76.5 46.75,76.5 65.941895,76.5 81.5,60.941895 81.5,41.75 Z M 8,41.75 C 8,20.348966 25.348966,3 46.75,3 68.151034,3 85.5,20.348966 85.5,41.75 85.5,63.151034 68.151034,80.5 46.75,80.5 25.348966,80.5 8,63.151034 8,41.75 Z"
                 id="path11"
                 fill="#ffac03"
                 fill-rule="nonzero" />
              <path
                 d="m 57.172355,31.715118 c 0.913958,0.995632 0.131688,3.546978 1.589741,3.546978 2.761423,0 5,-2.238576 5,-5 0,-2.761424 -2.238577,-5 -5,-5 -2.761424,0 -5,2.238576 -5,5 0,1.303371 2.59326,0.563015 3.410259,1.453022 z"
                 id="Oval-2"
                 fill="#3a3b45"
                 fill-rule="nonzero"
                 transform="rotate(-28,58.762096,30.262096)" />
              <path
                 d="m 32.172355,31.715118 c 0.913959,0.995632 0.131688,3.546978 1.589741,3.546978 2.761424,0 5,-2.238576 5,-5 0,-2.761424 -2.238576,-5 -5,-5 -2.761424,0 -5,2.238576 -5,5 0,1.303371 2.593261,0.563015 3.410259,1.453022 z"
                 id="path14"
                 fill="#3a3b45"
                 fill-rule="nonzero"
                 transform="matrix(-0.88294759,-0.46947156,-0.46947156,0.88294759,77.779451,19.392595)" />
              <g
                 id="Oval-4"
                 transform="translate(33.5,41.5)">
                <g
                   id="Mask"
                   fill-rule="nonzero"
                   fill="#3a3b45">
                  <path
                     d="m 13,14.789019 c 9.82848,0 13,-8.76296 13,-13.2628439 C 26,-0.81248411 24.427913,-0.0763571 21.909948,1.1702099 19.583022,2.3221996 16.4483,3.9101131 13,3.9101131 5.8202982,3.9101131 0,-2.9737088 0,1.5261751 0,6.026059 3.1715199,14.789019 13,14.789019 Z"
                     id="path16" />
                </g>
                <g
                   id="Clipped">
                  <mask
                     id="mask-2"
                     fill="#ffffff">
                    <use
                       xlink:href="#path-1"
                       id="use19"
                       x="0"
                       y="0"
                       width="100%"
                       height="100%" />
                  </mask>
                  <g
                     id="g22" />
                  <path
                     d="m 13.25,25 c 4.789929,0 8.672934,-3.883005 8.672934,-8.672934 0,-3.730834 -2.355709,-6.9114622 -5.660835,-8.1355948 C 16.140459,8.146419 16.017534,8.104017 15.893392,8.064335 15.059989,7.7979368 14.171788,10.662314 13.25,10.662314 c -0.861312,0 -1.693299,-2.8826276 -2.478657,-2.6488233 C 7.1891627,9.0799194 4.5770662,12.398449 4.5770662,16.327066 4.5770662,21.116995 8.4600709,25 13.25,25 Z"
                     id="Shape"
                     fill="#ef4e4e"
                     fill-rule="nonzero"
                     mask="url(#mask-2)" />
                </g>
              </g>
              <circle
                 id="Oval-3"
                 fill="#ffd21e"
                 fill-rule="nonzero"
                 style="mix-blend-mode:multiply"
                 cx="70.25"
                 cy="33.75"
                 r="3.25" />
              <circle
                 id="circle28"
                 fill="#ffd21e"
                 fill-rule="nonzero"
                 style="mix-blend-mode:multiply"
                 cx="23.75"
                 cy="33.75"
                 r="3.25" />
            </g>
          </g>
        </g>
        <g
           id="Group-4"
           transform="translate(3,48)"
           fill-rule="nonzero">
          <path
             d="m 14.061945,0 v 0 c -1.619,0 -3.066,0.665 -4.0749997,1.871 -0.624,0.747 -1.276,1.951 -1.329,3.754 -0.679,-0.195 -1.332,-0.304 -1.942,-0.304 -1.55,0 -2.95,0.594 -3.94,1.673 -1.272,1.385 -1.83699995,3.087 -1.591,4.79 0.117,0.811 0.388,1.538 0.793,2.211 -0.854,0.691 -1.48299996,1.653 -1.78699996,2.81 -0.238,0.907 -0.48199999,2.796 0.792,4.742 -0.081,0.127 -0.157,0.259 -0.228,0.394 -0.766,1.454 -0.815,3.097 -0.139,4.627 1.02499996,2.319 3.57199996,4.146 8.51799996,6.107 3.0769997,1.22 5.8919997,2 5.9169997,2.007 4.068,1.055 7.747,1.591 10.932,1.591 5.854,0 10.045,-1.793 12.457,-5.329 3.882,-5.694 3.327,-10.902 -1.696,-15.922 -2.78,-2.778 -4.628,-6.874 -5.013,-7.773 -0.776,-2.662 -2.828,-5.621 -6.239,-5.621 h -0.001 c -0.287,0 -0.577,0.023 -0.863,0.068 -1.494,0.235 -2.8,1.095 -3.733,2.389 -1.007,-1.252 -1.985,-2.248 -2.87,-2.81 -1.334,-0.846 -2.667,-1.275 -3.963,-1.275 m 0,4 c 0.51,0 1.133,0.217 1.82,0.653 2.133,1.353 6.249,8.428 7.756,11.18 0.505,0.922 1.368,1.312 2.145,1.312 1.542,0 2.746,-1.533 0.141,-3.481 -3.917,-2.931 -2.543,-7.722 -0.673,-8.017 0.082,-0.013 0.163,-0.019 0.241,-0.019 1.7,0 2.45,2.93 2.45,2.93 0,0 2.198,5.52 5.974,9.293 3.776,3.774 3.971,6.803 1.219,10.839 -1.877,2.752 -5.47,3.583 -9.152,3.583 -3.819,0 -7.734,-0.894 -9.928,-1.463 -0.108,-0.028 -13.4509997,-3.797 -11.7609997,-7.005 0.284,-0.539 0.752,-0.755 1.341,-0.755 2.38,0 6.7089997,3.542 8.5699997,3.542 0.416,0 0.709,-0.177 0.829,-0.609 0.793,-2.845 -12.0569997,-4.041 -10.9739997,-8.162 0.191,-0.729 0.709,-1.025 1.437,-1.024 3.145,0 10.2009997,5.531 11.6799997,5.531 0.113,0 0.194,-0.033 0.238,-0.103 0.741,-1.196 0.335,-2.031 -4.888,-5.192 -5.2229997,-3.162 -8.8889997,-5.064 -6.8039997,-7.334 0.24,-0.262 0.58,-0.378 0.993,-0.378 3.171,10e-4 10.6629997,6.819 10.6629997,6.819 0,0 2.022,2.103 3.245,2.103 0.281,0 0.52,-0.111 0.682,-0.385 0.867,-1.462 -8.053,-8.222 -8.556,-11.011 -0.341,-1.89 0.239,-2.847 1.312,-2.847"
             id="path33"
             fill="#ffac03" />
          <path
             d="m 35.1348,28.6899 c 2.752,-4.036 2.557,-7.065 -1.219,-10.839 -3.776,-3.773 -5.974,-9.293 -5.974,-9.293 0,0 -0.821,-3.206 -2.691,-2.911 -1.87,0.295 -3.243,5.086 0.674,8.017 3.917,2.93 -0.78,4.921 -2.287,2.169 -1.507,-2.752 -5.622,-9.827 -7.756,-11.18 -2.133,-1.353 -3.635,-0.595 -3.132,2.194 0.503,2.789 9.424,9.549 8.556,11.012 -0.868,1.462 -3.927,-1.719 -3.927,-1.719 0,0 -9.572,-8.711 -11.656,-6.441 -2.084,2.27 1.581,4.172 6.804,7.334 5.224,3.161 5.629,3.996 4.888,5.192 -0.742,1.196 -12.272,-8.525 -13.355,-4.404 -1.082,4.121 11.767,5.317 10.974,8.162 -0.793,2.846 -9.051,-5.385 -10.74,-2.178 -1.69,3.208 11.653,6.977 11.761,7.005 4.31,1.118 15.256,3.487 19.08,-2.12"
             id="Fill-4"
             fill="#ffd21e" />
        </g>
        <g
           id="g41"
           transform="matrix(-1,0,0,1,91,48)"
           fill-rule="nonzero">
          <path
             d="m 14.061945,0 v 0 c -1.619,0 -3.066,0.665 -4.0749997,1.871 -0.624,0.747 -1.276,1.951 -1.329,3.754 -0.679,-0.195 -1.332,-0.304 -1.942,-0.304 -1.55,0 -2.95,0.594 -3.94,1.673 -1.272,1.385 -1.83699995,3.087 -1.591,4.79 0.117,0.811 0.388,1.538 0.793,2.211 -0.854,0.691 -1.48299996,1.653 -1.78699996,2.81 -0.238,0.907 -0.48199999,2.796 0.792,4.742 -0.081,0.127 -0.157,0.259 -0.228,0.394 -0.766,1.454 -0.815,3.097 -0.139,4.627 1.02499996,2.319 3.57199996,4.146 8.51799996,6.107 3.0769997,1.22 5.8919997,2 5.9169997,2.007 4.068,1.055 7.747,1.591 10.932,1.591 5.854,0 10.045,-1.793 12.457,-5.329 3.882,-5.694 3.327,-10.902 -1.696,-15.922 -2.78,-2.778 -4.628,-6.874 -5.013,-7.773 -0.776,-2.662 -2.828,-5.621 -6.239,-5.621 h -0.001 c -0.287,0 -0.577,0.023 -0.863,0.068 -1.494,0.235 -2.8,1.095 -3.733,2.389 -1.007,-1.252 -1.985,-2.248 -2.87,-2.81 -1.334,-0.846 -2.667,-1.275 -3.963,-1.275 m 0,4 c 0.51,0 1.133,0.217 1.82,0.653 2.133,1.353 6.249,8.428 7.756,11.18 0.505,0.922 1.368,1.312 2.145,1.312 1.542,0 2.746,-1.533 0.141,-3.481 -3.917,-2.931 -2.543,-7.722 -0.673,-8.017 0.082,-0.013 0.163,-0.019 0.241,-0.019 1.7,0 2.45,2.93 2.45,2.93 0,0 2.198,5.52 5.974,9.293 3.776,3.774 3.971,6.803 1.219,10.839 -1.877,2.752 -5.47,3.583 -9.152,3.583 -3.819,0 -7.734,-0.894 -9.928,-1.463 -0.108,-0.028 -13.4509997,-3.797 -11.7609997,-7.005 0.284,-0.539 0.752,-0.755 1.341,-0.755 2.38,0 6.7089997,3.542 8.5699997,3.542 0.416,0 0.709,-0.177 0.829,-0.609 0.793,-2.845 -12.0569997,-4.041 -10.9739997,-8.162 0.191,-0.729 0.709,-1.025 1.437,-1.024 3.145,0 10.2009997,5.531 11.6799997,5.531 0.113,0 0.194,-0.033 0.238,-0.103 0.741,-1.196 0.335,-2.031 -4.888,-5.192 -5.2229997,-3.162 -8.8889997,-5.064 -6.8039997,-7.334 0.24,-0.262 0.58,-0.378 0.993,-0.378 3.171,10e-4 10.6629997,6.819 10.6629997,6.819 0,0 2.022,2.103 3.245,2.103 0.281,0 0.52,-0.111 0.682,-0.385 0.867,-1.462 -8.053,-8.222 -8.556,-11.011 -0.341,-1.89 0.239,-2.847 1.312,-2.847"
             id="path37"
             fill="#ffac03" />
          <path
             d="m 35.1348,28.6899 c 2.752,-4.036 2.557,-7.065 -1.219,-10.839 -3.776,-3.773 -5.974,-9.293 -5.974,-9.293 0,0 -0.821,-3.206 -2.691,-2.911 -1.87,0.295 -3.243,5.086 0.674,8.017 3.917,2.93 -0.78,4.921 -2.287,2.169 -1.507,-2.752 -5.622,-9.827 -7.756,-11.18 -2.133,-1.353 -3.635,-0.595 -3.132,2.194 0.503,2.789 9.424,9.549 8.556,11.012 -0.868,1.462 -3.927,-1.719 -3.927,-1.719 0,0 -9.572,-8.711 -11.656,-6.441 -2.084,2.27 1.581,4.172 6.804,7.334 5.224,3.161 5.629,3.996 4.888,5.192 -0.742,1.196 -12.272,-8.525 -13.355,-4.404 -1.082,4.121 11.767,5.317 10.974,8.162 -0.793,2.846 -9.051,-5.385 -10.74,-2.178 -1.69,3.208 11.653,6.977 11.761,7.005 4.31,1.118 15.256,3.487 19.08,-2.12"
             id="path39"
             fill="#ffd21e" />
        </g>
      </g>
    </g>
  </g>
  <text
     xml:space="preserve"
     style="font-style:normal;font-variant:normal;font-weight:bold;font-stretch:normal;font-size:46.1554px;line-height:1.25;font-family:sans-serif;-inkscape-font-specification:'sans-serif Bold';fill:#000000;fill-opacity:1;stroke:none;stroke-width:1.15389"
     x="103.6733"
     y="60.135597"
     id="text3771"><tspan
       sodipodi:role="line"
       id="tspan3769"
       x="103.6733"
       y="60.135597"
       style="font-style:normal;font-variant:normal;font-weight:bold;font-stretch:normal;font-family:Source Sans Pro,ui-sans-serif,system-ui,-apple-system,BlinkMacSystemFont,Segoe UI,Roboto,Helvetica Neue,Arial,Noto Sans,sans-serif,Apple Color Emoji,Segoe UI Emoji,Segoe UI Symbol,Noto Color Emoji;-inkscape-font-specification:'sans-serif Bold';stroke-width:1.15389">Hugging Face</tspan></text>
</svg>
